<svg width="320" height="568" viewBox="0 0 320 568" fill="none" xmlns="http://www.w3.org/2000/svg">
<g clip-path="url(#clip0_1_399)">
<rect width="320" height="568" fill="black"/>
<path d="M101.037 253.941L104.309 246.227H108.935L103.21 257.616V264H98.8643V257.616L93.1514 246.227H97.7534L101.037 253.941ZM124.914 255.479C124.914 257.213 124.593 258.747 123.95 260.082C123.307 261.416 122.391 262.446 121.203 263.17C120.023 263.886 118.676 264.244 117.163 264.244C115.649 264.244 114.306 263.898 113.134 263.207C111.962 262.507 111.047 261.51 110.388 260.216C109.737 258.922 109.395 257.437 109.362 255.76V254.759C109.362 253.018 109.68 251.484 110.314 250.157C110.957 248.823 111.873 247.793 113.061 247.069C114.257 246.345 115.616 245.982 117.138 245.982C118.644 245.982 119.986 246.34 121.167 247.057C122.347 247.773 123.262 248.794 123.913 250.121C124.572 251.439 124.906 252.953 124.914 254.662V255.479ZM120.556 254.735C120.556 252.969 120.259 251.63 119.665 250.719C119.079 249.799 118.237 249.339 117.138 249.339C114.99 249.339 113.854 250.951 113.732 254.173L113.72 255.479C113.72 257.221 114.009 258.56 114.587 259.496C115.165 260.431 116.023 260.899 117.163 260.899C118.245 260.899 119.079 260.44 119.665 259.52C120.251 258.6 120.548 257.278 120.556 255.553V254.735ZM141.064 246.227V257.86C141.064 259.178 140.783 260.322 140.222 261.29C139.66 262.25 138.854 262.983 137.805 263.487C136.755 263.992 135.514 264.244 134.082 264.244C131.917 264.244 130.212 263.683 128.967 262.56C127.722 261.437 127.087 259.898 127.062 257.945V246.227H131.372V258.031C131.42 259.976 132.324 260.948 134.082 260.948C134.969 260.948 135.64 260.704 136.096 260.216C136.551 259.728 136.779 258.934 136.779 257.835V246.227H141.064ZM163.745 257.372L165.783 246.227H170.031L166.259 264H161.816L159.436 253.868L157.104 264H152.673L148.889 246.227H153.149L155.188 257.372L157.629 246.227H161.267L163.745 257.372ZM176.269 264H171.997V246.227H176.269V264ZM194.091 264H189.831L183.532 252.94V264H179.248V246.227H183.532L189.819 257.286V246.227H194.091V264ZM200.695 258.373H197.363L196.838 246.227H201.22L200.695 258.373ZM196.716 262.157C196.716 261.555 196.931 261.062 197.363 260.68C197.802 260.289 198.347 260.094 198.999 260.094C199.65 260.094 200.191 260.289 200.622 260.68C201.062 261.062 201.281 261.555 201.281 262.157C201.281 262.759 201.062 263.255 200.622 263.646C200.191 264.028 199.65 264.22 198.999 264.22C198.347 264.22 197.802 264.028 197.363 263.646C196.931 263.255 196.716 262.759 196.716 262.157ZM220.703 242.516C214.013 242.516 208.593 247.936 208.593 254.625C208.593 261.314 214.013 266.734 220.703 266.734C227.392 266.734 232.812 261.314 232.812 254.625C232.812 247.936 227.392 242.516 220.703 242.516ZM227.587 261.559C225.732 263.414 223.291 264.391 220.703 264.391C218.066 264.391 215.625 263.414 213.769 261.559C211.914 259.703 210.937 257.262 210.937 254.625C210.937 252.037 211.914 249.596 213.769 247.74C215.625 245.885 218.066 244.859 220.703 244.859C223.291 244.859 225.732 245.885 227.587 247.74C229.443 249.596 230.468 252.037 230.468 254.625C230.468 257.262 229.443 259.703 227.587 261.559ZM224.609 249.547C223.437 249.547 222.021 251.012 221.875 253.062C221.826 253.453 222.363 253.648 222.558 253.258L223.046 252.428C223.437 251.793 223.974 251.402 224.56 251.402C225.195 251.402 225.732 251.793 226.123 252.428L226.562 253.258C226.806 253.648 227.343 253.453 227.294 253.062C227.148 251.012 225.732 249.547 224.609 249.547ZM214.794 253.258L215.234 252.428C215.625 251.793 216.162 251.402 216.796 251.402C217.382 251.402 217.919 251.793 218.31 252.428L218.798 253.258C218.994 253.648 219.531 253.453 219.482 253.062C219.335 251.012 217.919 249.547 216.748 249.547C215.625 249.547 214.208 251.012 214.013 253.062C214.013 253.453 214.55 253.648 214.794 253.258ZM226.269 256.188H215.087C214.697 256.188 214.404 256.529 214.453 256.92C214.794 259.85 217.333 262.047 220.361 262.047H220.996C224.072 262.047 226.562 259.85 226.904 256.92C226.953 256.529 226.66 256.188 226.269 256.188Z" fill="white"/>
<path d="M176.824 155.649L132.883 176.932C132.43 177.151 131.964 177.327 131.498 177.493C134.87 178.703 138.647 178.531 141.965 176.932L185.906 155.649C190.147 153.568 192.856 149.247 192.856 144.536L192.856 66.2333L183.774 66.2333L183.774 144.536C183.774 149.247 181.065 153.568 176.824 155.649Z" fill="black"/>
<path d="M95.4706 121.564L95.4706 132.716C95.4706 136.288 97.3942 139.627 100.458 141.473L111.846 148.228L111.846 159.066C111.846 162.677 113.613 166.016 116.636 168.017L128.574 176.029C129.495 176.648 130.479 177.127 131.498 177.493C131.964 177.327 132.43 177.151 132.883 176.932L176.824 155.649C181.065 153.568 183.774 149.247 183.774 144.536L183.774 66.2333L137.449 66.2333L137.369 66.2333L137.369 89.7552L128.288 89.7552L128.26 89.7552L100.614 111.118C97.3942 113.632 95.4706 117.479 95.4706 121.564Z" fill="#FFCC99"/>
<path d="M193.042 39.4918L193.042 59.3224C193.042 63.1325 189.941 66.2334 186.131 66.2334L192.856 66.2334L195.212 66.2334C199.022 66.2334 202.125 63.1325 202.125 59.3224L202.125 39.4918C202.125 35.6835 199.022 32.5808 195.212 32.5808L186.131 32.5808C189.941 32.5808 193.042 35.6835 193.042 39.4918Z" fill="black"/>
<path d="M137.449 66.2333L192.856 66.2333L192.856 144.536C192.856 149.247 190.147 153.568 185.906 155.649L141.965 176.932C137.646 179.013 132.54 178.699 128.574 176.029L116.636 168.017C113.613 166.016 111.846 162.677 111.846 159.066L111.846 148.228L111.846 131.97C111.846 127.651 114.241 123.723 118.09 121.8L143.888 108.683C147.502 106.838 151.782 106.996 155.237 109.036L171.337 118.619C174.557 120.504 176.522 123.959 176.522 127.69C176.522 130.36 175.421 132.755 173.694 134.523C171.965 136.249 169.531 137.31 166.9 137.31L159.831 137.31" stroke="#231F20" stroke-width="4.125" stroke-miterlimit="10"/>
<path d="M164.859 89.7552L128.26 89.7552L100.614 111.118C97.3942 113.632 95.4705 117.479 95.4705 121.564L95.4705 132.716C95.4705 136.288 97.3942 139.627 100.458 141.473L111.846 148.228" stroke="#231F20" stroke-width="4.125" stroke-miterlimit="10"/>
<path d="M137.369 66.2333L137.369 89.7552" stroke="#231F20" stroke-width="4.125" stroke-miterlimit="10"/>
<path d="M159.831 148.228L159.831 126.826" stroke="#231F20" stroke-width="4.125" stroke-miterlimit="10"/>
<rect x="205.792" y="67.375" width="77.4583" height="33" rx="7.33333" transform="rotate(-180 205.792 67.375)" fill="black" stroke="#231F20" stroke-width="3.66667"/>
<rect x="196.625" y="65.5417" width="66.4583" height="29.3333" rx="4.58333" transform="rotate(-180 196.625 65.5417)" fill="#66CC99"/>
<path d="M132.499 526.792V507C132.499 504.961 133.386 503.149 134.771 501.881H129.46C125.651 501.881 122.549 504.982 122.549 508.831V528.622C122.549 532.47 125.651 535.572 129.46 535.572H189.659C191.449 535.572 193.069 534.869 194.298 533.743H139.411C135.601 533.743 132.499 530.641 132.499 526.792Z" fill="black"/>
<path d="M202.476 368.422C202.677 367.627 203.01 366.906 203.432 366.262C203.039 365.982 202.679 365.662 202.225 365.462C201.282 365.068 200.34 364.871 199.397 364.871C196.256 364.871 193.35 366.992 192.525 370.252L189.297 383.352L189.557 420.846L202.476 368.422Z" fill="#FFCC99"/>
<path d="M214.492 415.898C214.664 415.614 214.893 415.402 215.09 415.15C213.876 414.407 212.518 413.997 211.138 413.997C209.99 413.997 208.855 414.288 207.803 414.793L204.283 432.745L214.492 415.898Z" fill="#FFCC99"/>
<path d="M147.146 366.931C147.146 366.734 147.107 366.537 147.107 366.381C147.107 364.918 147.61 363.577 148.394 362.433C146.761 361.286 144.669 360.805 142.576 361.338C139.395 362.123 137.156 364.951 137.156 368.21C137.156 368.368 137.196 368.563 137.196 368.76L139.096 394.981L151.388 425.44L147.146 366.931Z" fill="#FFCC99"/>
<path d="M173.771 352.557C173.85 350.906 174.461 349.412 175.412 348.199C174.259 347.505 172.921 347.083 171.477 347.083C167.354 347.083 164.016 350.303 163.82 354.388L162.902 374.653L170.708 420.217L173.771 352.557Z" fill="#FFCC99"/>
<path d="M145.929 469.775L124.018 394.536C123.821 393.869 123.743 393.24 123.743 392.573C123.743 391.26 124.128 389.987 124.817 388.891C122.798 387.396 120.05 387.025 117.601 388.237C115.205 389.415 113.792 391.849 113.792 394.402C113.792 395.07 113.87 395.698 114.067 396.366L135.978 471.604V501.881H183.101V500.05H145.929V469.775Z" fill="black"/>
<path d="M193.232 471.604L217.893 425.306C219.267 422.753 219.071 419.613 217.382 417.257C216.747 416.346 215.95 415.675 215.09 415.15C214.893 415.402 214.664 415.614 214.492 415.898L204.283 432.745L207.803 414.793C206.517 415.412 205.362 416.366 204.541 417.727L194.332 434.574L206.348 373.314C206.881 370.546 205.65 367.852 203.432 366.262C203.01 366.906 202.677 367.627 202.476 368.422L189.557 420.846L189.297 383.352L179.606 422.675L179.135 354.663C179.109 351.905 177.615 349.525 175.412 348.199C174.461 349.412 173.85 350.906 173.771 352.557L170.707 420.217L162.902 374.653L160.757 422.048L151.333 367.033C150.995 365.083 149.885 363.483 148.394 362.433C147.61 363.577 147.107 364.918 147.107 366.381C147.107 366.537 147.146 366.734 147.146 366.931L151.388 425.44L139.096 394.981L141.437 427.269L127.143 391.849C126.639 390.608 125.809 389.624 124.818 388.891C124.128 389.986 123.743 391.26 123.743 392.573C123.743 393.24 123.821 393.869 124.018 394.536L145.929 469.775V500.05H183.101V483.385L193.232 471.604Z" fill="#FFCC99"/>
<path d="M160.757 422.048L151.333 367.033C150.626 362.948 146.581 360.317 142.576 361.338C139.395 362.123 137.156 364.951 137.156 368.21C137.156 368.368 137.196 368.563 137.196 368.76L141.437 427.269" stroke="#231F20" stroke-width="4.125" stroke-miterlimit="10"/>
<path d="M179.606 422.675L179.135 354.663C179.095 350.461 175.679 347.083 171.477 347.083C167.354 347.083 164.016 350.303 163.82 354.388L160.757 422.048" stroke="#231F20" stroke-width="4.125" stroke-miterlimit="10"/>
<path d="M194.332 434.574L206.348 373.314C206.976 370.056 205.248 366.797 202.225 365.462C201.282 365.068 200.34 364.871 199.397 364.871C196.256 364.871 193.35 366.992 192.525 370.252L179.606 422.675" stroke="#231F20" stroke-width="4.125" stroke-miterlimit="10"/>
<path d="M141.437 427.269L127.143 391.849C125.612 388.08 121.253 386.431 117.601 388.237C115.205 389.415 113.792 391.849 113.792 394.402C113.792 395.07 113.87 395.698 114.067 396.366L135.978 471.604V501.881H183.101V483.385L193.232 471.604L217.893 425.307C219.267 422.753 219.071 419.614 217.382 417.257C215.851 415.057 213.495 413.997 211.138 413.997C208.586 413.997 206.034 415.254 204.541 417.727L194.331 434.574L175.758 436.616L165.273 456.8" stroke="#231F20" stroke-width="4.125" stroke-miterlimit="10"/>
<rect x="120.208" y="500.625" width="77.4583" height="33" rx="7.33333" fill="black" stroke="#231F20" stroke-width="3.66667"/>
<rect x="129.375" y="502.458" width="66.4583" height="29.3333" rx="4.58333" fill="#66CC99"/>
<rect x="69" y="274" width="184" height="46" rx="10" fill="#37209D"/>
<path d="M114.392 298.288V303.5H113.311V290.703H117.67C119 290.703 120.049 291.043 120.816 291.723C121.59 292.402 121.977 293.337 121.977 294.526C121.977 295.728 121.604 296.656 120.86 297.312C120.122 297.963 119.05 298.288 117.644 298.288H114.392ZM114.392 297.374H117.67C118.719 297.374 119.519 297.125 120.069 296.627C120.62 296.129 120.896 295.435 120.896 294.544C120.896 293.659 120.62 292.956 120.069 292.435C119.524 291.907 118.748 291.638 117.74 291.626H114.392V297.374ZM125.492 302.586H131.812V303.5H124.402V290.703H125.492V302.586ZM140.979 299.914H135.169L133.851 303.5H132.717L137.56 290.703H138.588L143.431 303.5H142.306L140.979 299.914ZM135.503 298.991H140.636L138.069 292.021L135.503 298.991ZM148.247 297.682L152.158 290.703H153.406L148.783 298.684V303.5H147.702V298.684L143.088 290.703H144.371L148.247 297.682ZM166.555 299.914H160.745L159.427 303.5H158.293L163.136 290.703H164.164L169.007 303.5H167.882L166.555 299.914ZM161.079 298.991H166.212L163.646 292.021L161.079 298.991ZM180.028 301.979C179.653 302.513 179.064 302.929 178.262 303.228C177.465 303.526 176.571 303.676 175.581 303.676C174.579 303.676 173.688 303.436 172.909 302.955C172.13 302.475 171.526 301.795 171.099 300.916C170.671 300.037 170.454 299.029 170.448 297.893V296.275C170.448 294.5 170.896 293.1 171.793 292.074C172.689 291.043 173.894 290.527 175.405 290.527C176.724 290.527 177.784 290.864 178.587 291.538C179.39 292.206 179.867 293.129 180.02 294.307H178.938C178.78 293.369 178.396 292.66 177.787 292.18C177.184 291.693 176.393 291.45 175.414 291.45C174.219 291.45 173.272 291.875 172.575 292.725C171.878 293.574 171.529 294.772 171.529 296.319V297.831C171.529 298.804 171.693 299.665 172.021 300.415C172.355 301.159 172.83 301.736 173.445 302.146C174.066 302.557 174.778 302.762 175.581 302.762C176.513 302.762 177.312 302.615 177.98 302.322C178.414 302.129 178.736 301.903 178.947 301.646V298.341H175.511V297.427H180.028V301.979ZM190.004 299.914H184.194L182.876 303.5H181.742L186.585 290.703H187.613L192.456 303.5H191.331L190.004 299.914ZM184.528 298.991H189.661L187.095 292.021L184.528 298.991ZM195.664 303.5H194.583V290.703H195.664V303.5ZM208.672 303.5H207.591L200.234 292.549V303.5H199.145V290.703H200.234L207.6 301.663V290.703H208.672V303.5Z" fill="#E3E1E1"/>
<path d="M23.8203 25.25L27.3359 21.7344C27.793 21.3125 27.793 20.6094 27.3359 20.1875L26.5625 19.4141C26.1406 18.957 25.4375 18.957 25.0156 19.4141L21.5 22.9297L17.9492 19.4141C17.5273 18.957 16.8242 18.957 16.4023 19.4141L15.6289 20.1875C15.1719 20.6094 15.1719 21.3125 15.6289 21.7344L19.1445 25.25L15.6289 28.8008C15.1719 29.2227 15.1719 29.9258 15.6289 30.3477L16.4023 31.1211C16.8242 31.5781 17.5273 31.5781 17.9492 31.1211L21.5 27.6055L25.0156 31.1211C25.4375 31.5781 26.1406 31.5781 26.5625 31.1211L27.3359 30.3477C27.793 29.9258 27.793 29.2227 27.3359 28.8008L23.8203 25.25Z" fill="white"/>
</g>
<defs>
<clipPath id="clip0_1_399">
<rect width="320" height="568" fill="white"/>
</clipPath>
</defs>
</svg>
