<svg width="320" height="568" viewBox="0 0 320 568" fill="none" xmlns="http://www.w3.org/2000/svg">
<g clip-path="url(#clip0_1_383)">
<rect width="320" height="568" fill="black"/>
<path d="M81.2251 264H76.9526V246.227H81.2251V264ZM97.79 249.535H92.4556V264H88.1709V249.535H82.9341V246.227H97.79V249.535ZM100.878 251.793L99.0718 250.816C99.7472 249.645 100.093 248.497 100.109 247.374V245.25H103.112V247.24C103.112 247.997 102.893 248.806 102.453 249.669C102.022 250.523 101.497 251.231 100.878 251.793ZM114.855 259.276C114.855 258.649 114.632 258.161 114.184 257.811C113.745 257.461 112.967 257.099 111.853 256.725C110.738 256.35 109.826 255.988 109.118 255.638C106.815 254.507 105.664 252.953 105.664 250.975C105.664 249.99 105.948 249.124 106.518 248.375C107.096 247.618 107.91 247.032 108.959 246.617C110.009 246.194 111.189 245.982 112.5 245.982C113.777 245.982 114.921 246.21 115.93 246.666C116.947 247.122 117.736 247.773 118.298 248.619C118.859 249.457 119.14 250.418 119.14 251.5H114.868C114.868 250.776 114.644 250.214 114.196 249.815C113.757 249.417 113.159 249.217 112.402 249.217C111.637 249.217 111.031 249.388 110.583 249.73C110.144 250.064 109.924 250.491 109.924 251.012C109.924 251.467 110.168 251.882 110.656 252.257C111.145 252.623 112.003 253.006 113.232 253.404C114.461 253.795 115.47 254.218 116.259 254.674C118.18 255.781 119.14 257.306 119.14 259.251C119.14 260.806 118.554 262.027 117.382 262.914C116.21 263.801 114.603 264.244 112.561 264.244C111.12 264.244 109.814 263.988 108.642 263.475C107.478 262.954 106.599 262.246 106.005 261.351C105.419 260.448 105.126 259.41 105.126 258.238H109.423C109.423 259.19 109.667 259.894 110.156 260.35C110.652 260.798 111.454 261.021 112.561 261.021C113.269 261.021 113.826 260.871 114.233 260.57C114.648 260.261 114.855 259.829 114.855 259.276ZM137.658 260.68H131.787L130.761 264H126.184L132.702 246.227H136.73L143.298 264H138.696L137.658 260.68ZM132.812 257.372H136.633L134.716 251.207L132.812 257.372ZM150.83 264V246.227H156.555C158.125 246.227 159.537 246.585 160.791 247.301C162.044 248.009 163.02 249.014 163.72 250.316C164.428 251.61 164.786 253.062 164.794 254.674V255.492C164.794 257.119 164.449 258.58 163.757 259.874C163.073 261.16 162.105 262.169 160.852 262.901C159.606 263.626 158.215 263.992 156.677 264H150.83ZM155.114 249.535V260.704H156.604C157.832 260.704 158.776 260.269 159.436 259.398C160.095 258.519 160.424 257.217 160.424 255.492V254.723C160.424 253.006 160.095 251.712 159.436 250.841C158.776 249.97 157.816 249.535 156.555 249.535H155.114ZM173.596 257.726H171.276V264H166.992V246.227H173.986C176.094 246.227 177.742 246.694 178.93 247.63C180.118 248.566 180.712 249.889 180.712 251.598C180.712 252.835 180.46 253.86 179.956 254.674C179.459 255.488 178.678 256.147 177.612 256.651L181.323 263.817V264H176.733L173.596 257.726ZM171.276 254.417H173.986C174.8 254.417 175.41 254.206 175.817 253.783C176.232 253.351 176.44 252.753 176.44 251.988C176.44 251.223 176.232 250.625 175.817 250.194C175.402 249.754 174.792 249.535 173.986 249.535H171.276V254.417ZM193.396 260.68H187.524L186.499 264H181.921L188.439 246.227H192.468L199.035 264H194.433L193.396 260.68ZM188.549 257.372H192.37L190.454 251.207L188.549 257.372ZM213.623 257.372L215.661 246.227H219.909L216.137 264H211.694L209.313 253.868L206.982 264H202.551L198.767 246.227H203.027L205.065 257.372L207.507 246.227H211.145L213.623 257.372ZM238.574 242.516C231.884 242.516 226.464 247.936 226.464 254.625C226.464 261.314 231.884 266.734 238.574 266.734C245.263 266.734 250.683 261.314 250.683 254.625C250.683 247.936 245.263 242.516 238.574 242.516ZM238.574 264.391C233.154 264.391 228.808 260.045 228.808 254.625C228.808 249.254 233.154 244.859 238.574 244.859C243.945 244.859 248.339 249.254 248.339 254.625C248.339 260.045 243.945 264.391 238.574 264.391ZM234.667 253.844C235.498 253.844 236.23 253.16 236.23 252.281C236.23 251.451 235.498 250.719 234.667 250.719C233.789 250.719 233.105 251.451 233.105 252.281C233.105 253.16 233.789 253.844 234.667 253.844ZM242.48 250.719C241.601 250.719 240.917 251.451 240.917 252.281C240.917 253.16 241.601 253.844 242.48 253.844C243.31 253.844 244.042 253.16 244.042 252.281C244.042 251.451 243.31 250.719 242.48 250.719ZM242.871 257.75H234.277C233.593 257.75 233.105 258.287 233.105 258.922C233.105 259.605 233.593 260.094 234.277 260.094H242.871C243.505 260.094 244.042 259.605 244.042 258.922C244.042 258.287 243.505 257.75 242.871 257.75Z" fill="white"/>
<path d="M193.501 41.2084L193.501 61C193.501 63.0388 192.614 64.851 191.229 66.1192L196.54 66.1192C200.349 66.1192 203.451 63.0184 203.451 59.1692L203.451 39.3776C203.451 35.5304 200.349 32.4276 196.54 32.4276L136.341 32.4276C134.551 32.4276 132.931 33.1314 131.702 34.2566L186.589 34.2566C190.399 34.2566 193.501 37.3593 193.501 41.2084Z" fill="black"/>
<path d="M123.524 199.578C123.323 200.373 122.99 201.093 122.568 201.738C122.961 202.018 123.321 202.338 123.775 202.538C124.718 202.932 125.66 203.129 126.603 203.129C129.744 203.129 132.65 201.008 133.475 197.748L136.703 184.648L136.443 147.154L123.524 199.578Z" fill="#FFCC99"/>
<path d="M111.508 152.102C111.336 152.386 111.107 152.598 110.91 152.85C112.124 153.593 113.482 154.003 114.862 154.003C116.01 154.003 117.145 153.712 118.197 153.207L121.717 135.255L111.508 152.102Z" fill="#FFCC99"/>
<path d="M178.854 201.069C178.854 201.266 178.893 201.463 178.893 201.619C178.893 203.082 178.39 204.423 177.606 205.567C179.239 206.714 181.331 207.195 183.424 206.662C186.605 205.877 188.844 203.049 188.844 199.79C188.844 199.632 188.804 199.437 188.804 199.24L186.904 173.019L174.612 142.56L178.854 201.069Z" fill="#FFCC99"/>
<path d="M152.229 215.443C152.15 217.093 151.539 218.588 150.588 219.801C151.741 220.495 153.079 220.917 154.523 220.917C158.646 220.917 161.984 217.697 162.18 213.612L163.098 193.347L155.292 147.783L152.229 215.443Z" fill="#FFCC99"/>
<path d="M180.071 98.2251L201.982 173.464C202.179 174.131 202.257 174.76 202.257 175.427C202.257 176.74 201.872 178.013 201.183 179.109C203.202 180.604 205.95 180.975 208.399 179.763C210.795 178.585 212.208 176.151 212.208 173.598C212.208 172.93 212.13 172.302 211.933 171.634L190.022 96.3961L190.022 66.1192L142.899 66.1192L142.899 67.95L180.071 67.95L180.071 98.2251Z" fill="black"/>
<path d="M132.768 96.3962L108.107 142.694C106.733 145.247 106.929 148.386 108.618 150.743C109.252 151.654 110.05 152.325 110.91 152.85C111.107 152.598 111.336 152.386 111.508 152.102L121.717 135.255L118.197 153.207C119.483 152.588 120.638 151.634 121.459 150.273L131.668 133.426L119.652 194.686C119.119 197.454 120.35 200.148 122.568 201.738C122.99 201.093 123.323 200.373 123.524 199.578L136.443 147.154L136.703 184.648L146.394 145.325L146.865 213.337C146.891 216.095 148.385 218.475 150.588 219.801C151.539 218.588 152.15 217.094 152.229 215.443L155.293 147.783L163.098 193.347L165.243 145.952L174.667 200.967C175.005 202.917 176.115 204.517 177.606 205.567C178.39 204.423 178.893 203.082 178.893 201.619C178.893 201.463 178.854 201.266 178.854 201.069L174.612 142.56L186.904 173.019L184.563 140.731L198.857 176.151C199.361 177.391 200.191 178.376 201.182 179.109C201.872 178.014 202.257 176.74 202.257 175.427C202.257 174.76 202.179 174.131 201.982 173.464L180.071 98.2251L180.071 67.95L142.899 67.95L142.899 84.6148L132.768 96.3962Z" fill="#FFCC99"/>
<path d="M165.243 145.952L174.667 200.967C175.374 205.052 179.419 207.683 183.424 206.662C186.605 205.877 188.844 203.049 188.844 199.79C188.844 199.632 188.804 199.437 188.804 199.24L184.563 140.731" stroke="#231F20" stroke-width="4.125" stroke-miterlimit="10"/>
<path d="M146.394 145.325L146.865 213.337C146.905 217.539 150.321 220.917 154.523 220.917C158.646 220.917 161.984 217.697 162.18 213.612L165.243 145.952" stroke="#231F20" stroke-width="4.125" stroke-miterlimit="10"/>
<path d="M131.668 133.426L119.652 194.686C119.024 197.944 120.752 201.203 123.775 202.538C124.718 202.932 125.66 203.129 126.603 203.129C129.744 203.129 132.65 201.008 133.475 197.748L146.394 145.325" stroke="#231F20" stroke-width="4.125" stroke-miterlimit="10"/>
<path d="M184.563 140.731L198.857 176.151C200.388 179.92 204.747 181.569 208.399 179.763C210.795 178.585 212.208 176.151 212.208 173.598C212.208 172.93 212.13 172.302 211.933 171.634L190.022 96.3961L190.022 66.1192L142.899 66.1192L142.899 84.6147L132.768 96.3961L108.107 142.693C106.733 145.247 106.929 148.386 108.618 150.743C110.149 152.943 112.505 154.003 114.862 154.003C117.414 154.003 119.966 152.746 121.459 150.273L131.669 133.426L150.242 131.384L160.727 111.2" stroke="#231F20" stroke-width="4.125" stroke-miterlimit="10"/>
<rect x="205.792" y="67.375" width="77.4583" height="33" rx="7.33333" transform="rotate(-180 205.792 67.375)" fill="black" stroke="#231F20" stroke-width="3.66667"/>
<rect x="196.625" y="65.5417" width="66.4583" height="29.3333" rx="4.58333" transform="rotate(-180 196.625 65.5417)" fill="#66CC99"/>
<path d="M132.499 526.792V507C132.499 504.961 133.386 503.149 134.771 501.881H129.46C125.651 501.881 122.549 504.982 122.549 508.831V528.622C122.549 532.47 125.651 535.572 129.46 535.572H189.659C191.449 535.572 193.069 534.869 194.298 533.743H139.411C135.601 533.743 132.499 530.641 132.499 526.792Z" fill="black"/>
<path d="M202.476 368.422C202.677 367.627 203.01 366.906 203.432 366.262C203.039 365.982 202.679 365.662 202.225 365.462C201.282 365.068 200.34 364.871 199.397 364.871C196.256 364.871 193.35 366.992 192.525 370.252L189.297 383.352L189.557 420.846L202.476 368.422Z" fill="#FFCC99"/>
<path d="M214.492 415.898C214.664 415.614 214.893 415.402 215.09 415.15C213.876 414.407 212.518 413.997 211.138 413.997C209.99 413.997 208.855 414.288 207.803 414.793L204.283 432.745L214.492 415.898Z" fill="#FFCC99"/>
<path d="M147.146 366.931C147.146 366.734 147.107 366.537 147.107 366.381C147.107 364.918 147.61 363.577 148.394 362.433C146.761 361.286 144.669 360.805 142.576 361.338C139.395 362.123 137.156 364.951 137.156 368.21C137.156 368.368 137.196 368.563 137.196 368.76L139.096 394.981L151.388 425.44L147.146 366.931Z" fill="#FFCC99"/>
<path d="M173.771 352.557C173.85 350.906 174.461 349.412 175.412 348.199C174.259 347.505 172.921 347.083 171.477 347.083C167.354 347.083 164.016 350.303 163.82 354.388L162.902 374.653L170.708 420.217L173.771 352.557Z" fill="#FFCC99"/>
<path d="M145.929 469.775L124.018 394.536C123.821 393.869 123.743 393.24 123.743 392.573C123.743 391.26 124.128 389.987 124.817 388.891C122.798 387.396 120.05 387.025 117.601 388.237C115.205 389.415 113.792 391.849 113.792 394.402C113.792 395.07 113.87 395.698 114.067 396.366L135.978 471.604V501.881H183.101V500.05H145.929V469.775Z" fill="black"/>
<path d="M193.232 471.604L217.893 425.306C219.267 422.753 219.071 419.613 217.382 417.257C216.747 416.346 215.95 415.675 215.09 415.15C214.893 415.402 214.664 415.614 214.492 415.898L204.283 432.745L207.803 414.793C206.517 415.412 205.362 416.366 204.541 417.727L194.332 434.574L206.348 373.314C206.881 370.546 205.65 367.852 203.432 366.262C203.01 366.906 202.677 367.627 202.476 368.422L189.557 420.846L189.297 383.352L179.606 422.675L179.135 354.663C179.109 351.905 177.615 349.525 175.412 348.199C174.461 349.412 173.85 350.906 173.771 352.557L170.707 420.217L162.902 374.653L160.757 422.048L151.333 367.033C150.995 365.083 149.885 363.483 148.394 362.433C147.61 363.577 147.107 364.918 147.107 366.381C147.107 366.537 147.146 366.734 147.146 366.931L151.388 425.44L139.096 394.981L141.437 427.269L127.143 391.849C126.639 390.608 125.809 389.624 124.818 388.891C124.128 389.986 123.743 391.26 123.743 392.573C123.743 393.24 123.821 393.869 124.018 394.536L145.929 469.775V500.05H183.101V483.385L193.232 471.604Z" fill="#FFCC99"/>
<path d="M160.757 422.048L151.333 367.033C150.626 362.948 146.581 360.317 142.576 361.338C139.395 362.123 137.156 364.951 137.156 368.21C137.156 368.368 137.196 368.563 137.196 368.76L141.437 427.269" stroke="#231F20" stroke-width="4.125" stroke-miterlimit="10"/>
<path d="M179.606 422.675L179.135 354.663C179.095 350.461 175.679 347.083 171.477 347.083C167.354 347.083 164.016 350.303 163.82 354.388L160.757 422.048" stroke="#231F20" stroke-width="4.125" stroke-miterlimit="10"/>
<path d="M194.332 434.574L206.348 373.314C206.976 370.056 205.248 366.797 202.225 365.462C201.282 365.068 200.34 364.871 199.397 364.871C196.256 364.871 193.35 366.992 192.525 370.252L179.606 422.675" stroke="#231F20" stroke-width="4.125" stroke-miterlimit="10"/>
<path d="M141.437 427.269L127.143 391.849C125.612 388.08 121.253 386.431 117.601 388.237C115.205 389.415 113.792 391.849 113.792 394.402C113.792 395.07 113.87 395.698 114.067 396.366L135.978 471.604V501.881H183.101V483.385L193.232 471.604L217.893 425.307C219.267 422.753 219.071 419.614 217.382 417.257C215.851 415.057 213.495 413.997 211.138 413.997C208.586 413.997 206.034 415.254 204.541 417.727L194.331 434.574L175.758 436.616L165.273 456.8" stroke="#231F20" stroke-width="4.125" stroke-miterlimit="10"/>
<rect x="120.208" y="500.625" width="77.4583" height="33" rx="7.33333" fill="black" stroke="#231F20" stroke-width="3.66667"/>
<rect x="129.375" y="502.458" width="66.4583" height="29.3333" rx="4.58333" fill="#66CC99"/>
<rect x="69" y="274" width="184" height="46" rx="10" fill="#37209D"/>
<path d="M114.392 298.288V303.5H113.311V290.703H117.67C119 290.703 120.049 291.043 120.816 291.723C121.59 292.402 121.977 293.337 121.977 294.526C121.977 295.728 121.604 296.656 120.86 297.312C120.122 297.963 119.05 298.288 117.644 298.288H114.392ZM114.392 297.374H117.67C118.719 297.374 119.519 297.125 120.069 296.627C120.62 296.129 120.896 295.435 120.896 294.544C120.896 293.659 120.62 292.956 120.069 292.435C119.524 291.907 118.748 291.638 117.74 291.626H114.392V297.374ZM125.492 302.586H131.812V303.5H124.402V290.703H125.492V302.586ZM140.979 299.914H135.169L133.851 303.5H132.717L137.56 290.703H138.588L143.431 303.5H142.306L140.979 299.914ZM135.503 298.991H140.636L138.069 292.021L135.503 298.991ZM148.247 297.682L152.158 290.703H153.406L148.783 298.684V303.5H147.702V298.684L143.088 290.703H144.371L148.247 297.682ZM166.555 299.914H160.745L159.427 303.5H158.293L163.136 290.703H164.164L169.007 303.5H167.882L166.555 299.914ZM161.079 298.991H166.212L163.646 292.021L161.079 298.991ZM180.028 301.979C179.653 302.513 179.064 302.929 178.262 303.228C177.465 303.526 176.571 303.676 175.581 303.676C174.579 303.676 173.688 303.436 172.909 302.955C172.13 302.475 171.526 301.795 171.099 300.916C170.671 300.037 170.454 299.029 170.448 297.893V296.275C170.448 294.5 170.896 293.1 171.793 292.074C172.689 291.043 173.894 290.527 175.405 290.527C176.724 290.527 177.784 290.864 178.587 291.538C179.39 292.206 179.867 293.129 180.02 294.307H178.938C178.78 293.369 178.396 292.66 177.787 292.18C177.184 291.693 176.393 291.45 175.414 291.45C174.219 291.45 173.272 291.875 172.575 292.725C171.878 293.574 171.529 294.772 171.529 296.319V297.831C171.529 298.804 171.693 299.665 172.021 300.415C172.355 301.159 172.83 301.736 173.445 302.146C174.066 302.557 174.778 302.762 175.581 302.762C176.513 302.762 177.312 302.615 177.98 302.322C178.414 302.129 178.736 301.903 178.947 301.646V298.341H175.511V297.427H180.028V301.979ZM190.004 299.914H184.194L182.876 303.5H181.742L186.585 290.703H187.613L192.456 303.5H191.331L190.004 299.914ZM184.528 298.991H189.661L187.095 292.021L184.528 298.991ZM195.664 303.5H194.583V290.703H195.664V303.5ZM208.672 303.5H207.591L200.234 292.549V303.5H199.145V290.703H200.234L207.6 301.663V290.703H208.672V303.5Z" fill="#E3E1E1"/>
<path d="M23.8203 25.25L27.3359 21.7344C27.793 21.3125 27.793 20.6094 27.3359 20.1875L26.5625 19.4141C26.1406 18.957 25.4375 18.957 25.0156 19.4141L21.5 22.9297L17.9492 19.4141C17.5273 18.957 16.8242 18.957 16.4023 19.4141L15.6289 20.1875C15.1719 20.6094 15.1719 21.3125 15.6289 21.7344L19.1445 25.25L15.6289 28.8008C15.1719 29.2227 15.1719 29.9258 15.6289 30.3477L16.4023 31.1211C16.8242 31.5781 17.5273 31.5781 17.9492 31.1211L21.5 27.6055L25.0156 31.1211C25.4375 31.5781 26.1406 31.5781 26.5625 31.1211L27.3359 30.3477C27.793 29.9258 27.793 29.2227 27.3359 28.8008L23.8203 25.25Z" fill="white"/>
</g>
<defs>
<clipPath id="clip0_1_383">
<rect width="320" height="568" fill="white"/>
</clipPath>
</defs>
</svg>
