<svg width="320" height="568" viewBox="0 0 320 568" fill="none" xmlns="http://www.w3.org/2000/svg">
<g clip-path="url(#clip0_1_391)">
<rect width="320" height="568" fill="black"/>
<path d="M98.0708 253.941L101.342 246.227H105.969L100.244 257.616V264H95.8979V257.616L90.1851 246.227H94.7871L98.0708 253.941ZM121.948 255.479C121.948 257.213 121.626 258.747 120.983 260.082C120.34 261.416 119.425 262.446 118.237 263.17C117.057 263.886 115.71 264.244 114.196 264.244C112.683 264.244 111.34 263.898 110.168 263.207C108.996 262.507 108.081 261.51 107.421 260.216C106.77 258.922 106.429 257.437 106.396 255.76V254.759C106.396 253.018 106.713 251.484 107.348 250.157C107.991 248.823 108.907 247.793 110.095 247.069C111.291 246.345 112.65 245.982 114.172 245.982C115.677 245.982 117.02 246.34 118.2 247.057C119.38 247.773 120.296 248.794 120.947 250.121C121.606 251.439 121.94 252.953 121.948 254.662V255.479ZM117.59 254.735C117.59 252.969 117.293 251.63 116.699 250.719C116.113 249.799 115.271 249.339 114.172 249.339C112.023 249.339 110.888 250.951 110.766 254.173L110.754 255.479C110.754 257.221 111.043 258.56 111.621 259.496C112.198 260.431 113.057 260.899 114.196 260.899C115.279 260.899 116.113 260.44 116.699 259.52C117.285 258.6 117.582 257.278 117.59 255.553V254.735ZM138.098 246.227V257.86C138.098 259.178 137.817 260.322 137.255 261.29C136.694 262.25 135.888 262.983 134.838 263.487C133.789 263.992 132.548 264.244 131.115 264.244C128.951 264.244 127.246 263.683 126 262.56C124.755 261.437 124.121 259.898 124.096 257.945V246.227H128.405V258.031C128.454 259.976 129.357 260.948 131.115 260.948C132.002 260.948 132.674 260.704 133.129 260.216C133.585 259.728 133.813 258.934 133.813 257.835V246.227H138.098ZM151.293 260.704H158.752V264H147.009V246.227H151.293V260.704ZM174.829 255.479C174.829 257.213 174.507 258.747 173.864 260.082C173.221 261.416 172.306 262.446 171.118 263.17C169.938 263.886 168.591 264.244 167.077 264.244C165.563 264.244 164.221 263.898 163.049 263.207C161.877 262.507 160.961 261.51 160.302 260.216C159.651 258.922 159.309 257.437 159.277 255.76V254.759C159.277 253.018 159.594 251.484 160.229 250.157C160.872 248.823 161.787 247.793 162.976 247.069C164.172 246.345 165.531 245.982 167.053 245.982C168.558 245.982 169.901 246.34 171.081 247.057C172.261 247.773 173.177 248.794 173.828 250.121C174.487 251.439 174.82 252.953 174.829 254.662V255.479ZM170.471 254.735C170.471 252.969 170.174 251.63 169.58 250.719C168.994 249.799 168.151 249.339 167.053 249.339C164.904 249.339 163.769 250.951 163.647 254.173L163.635 255.479C163.635 257.221 163.924 258.56 164.501 259.496C165.079 260.431 165.938 260.899 167.077 260.899C168.16 260.899 168.994 260.44 169.58 259.52C170.166 258.6 170.463 257.278 170.471 255.553V254.735ZM186.206 259.276C186.206 258.649 185.982 258.161 185.534 257.811C185.095 257.461 184.318 257.099 183.203 256.725C182.088 256.35 181.176 255.988 180.468 255.638C178.165 254.507 177.014 252.953 177.014 250.975C177.014 249.99 177.299 249.124 177.868 248.375C178.446 247.618 179.26 247.032 180.31 246.617C181.359 246.194 182.539 245.982 183.85 245.982C185.127 245.982 186.271 246.21 187.28 246.666C188.297 247.122 189.086 247.773 189.648 248.619C190.209 249.457 190.49 250.418 190.49 251.5H186.218C186.218 250.776 185.994 250.214 185.546 249.815C185.107 249.417 184.509 249.217 183.752 249.217C182.987 249.217 182.381 249.388 181.933 249.73C181.494 250.064 181.274 250.491 181.274 251.012C181.274 251.467 181.518 251.882 182.006 252.257C182.495 252.623 183.353 253.006 184.582 253.404C185.811 253.795 186.82 254.218 187.609 254.674C189.53 255.781 190.49 257.306 190.49 259.251C190.49 260.806 189.904 262.027 188.732 262.914C187.561 263.801 185.953 264.244 183.911 264.244C182.47 264.244 181.164 263.988 179.992 263.475C178.828 262.954 177.95 262.246 177.355 261.351C176.77 260.448 176.477 259.41 176.477 258.238H180.773C180.773 259.19 181.018 259.894 181.506 260.35C182.002 260.798 182.804 261.021 183.911 261.021C184.619 261.021 185.176 260.871 185.583 260.57C185.998 260.261 186.206 259.829 186.206 259.276ZM203.71 256.468H196.972V260.704H204.931V264H192.688V246.227H204.956V249.535H196.972V253.282H203.71V256.468ZM223.669 242.516C216.979 242.516 211.56 247.936 211.56 254.625C211.56 261.314 216.979 266.734 223.669 266.734C230.358 266.734 235.778 261.314 235.778 254.625C235.778 247.936 230.358 242.516 223.669 242.516ZM230.7 261.412V255.797C230.7 255.162 230.163 254.625 229.528 254.625C228.845 254.625 228.356 255.162 228.356 255.797V263.219C226.94 263.951 225.329 264.391 223.669 264.391C221.96 264.391 220.349 263.951 218.981 263.219V255.797C218.981 255.162 218.444 254.625 217.81 254.625C217.126 254.625 216.638 255.162 216.638 255.797V261.412C214.929 259.654 213.903 257.262 213.903 254.625C213.903 249.254 218.249 244.859 223.669 244.859C229.04 244.859 233.435 249.254 233.435 254.625C233.435 257.262 232.36 259.654 230.7 261.412ZM221.569 253.6C221.813 253.502 221.911 253.258 221.862 253.014C221.667 251.744 220.202 250.914 218.981 250.914C217.712 250.914 216.247 251.744 216.052 253.014C216.003 253.258 216.149 253.502 216.345 253.6C216.54 253.697 216.833 253.697 217.028 253.502L217.468 253.111C218.2 252.477 219.714 252.477 220.446 253.111L220.935 253.502C221.032 253.648 221.325 253.746 221.569 253.6ZM228.356 250.914C227.087 250.914 225.622 251.744 225.427 253.014C225.378 253.258 225.476 253.502 225.72 253.6C225.915 253.697 226.208 253.697 226.403 253.502L226.843 253.111C227.575 252.477 229.089 252.477 229.821 253.111L230.31 253.502C230.407 253.648 230.7 253.746 230.944 253.6C231.188 253.502 231.286 253.258 231.237 253.014C231.042 251.744 229.577 250.914 228.356 250.914ZM223.669 255.406C222.155 255.406 220.935 256.822 220.935 258.531C220.935 260.289 222.155 261.656 223.669 261.656C225.134 261.656 226.403 260.289 226.403 258.531C226.403 256.822 225.134 255.406 223.669 255.406Z" fill="white"/>
<path d="M120.639 206.745C117.577 205.41 115.809 202.111 116.477 198.813L129.239 133.116L129.239 133.077L144.515 141.128C146.635 142.266 149.227 141.481 150.405 139.399L151.819 136.887C152.29 136.061 152.565 135.158 152.683 134.295L158.651 134.176C158.651 134.845 158.73 135.55 158.926 136.258L166.309 164.334L175.773 210.593C175.89 211.103 175.93 211.614 175.93 212.124C175.93 215.424 173.809 218.408 170.589 219.429C166.348 220.764 161.871 218.211 160.851 213.892L144.986 151.415L130.417 202.033C129.553 205.252 126.608 207.334 123.467 207.334C122.524 207.334 121.582 207.137 120.639 206.745Z" fill="#FFCC99"/>
<path d="M188.417 137.437L188.417 146.546C188.417 149.924 186.297 152.946 183.116 154.087L165.294 160.476L166.309 164.334L194.896 154.087C198.077 152.946 200.198 149.924 200.198 146.546L200.198 137.437L187.357 97.3428L187.357 67.0659L175.576 67.0659L175.576 97.3428L188.417 137.437" fill="black"/>
<path d="M130.143 97.3428L119.933 116.505C117.263 121.492 119.147 127.737 124.174 130.407L129.239 133.077L144.515 141.128C146.635 142.266 149.227 141.481 150.405 139.399L151.819 136.887C152.29 136.061 152.565 135.158 152.683 134.295L158.652 134.176C158.652 134.845 158.73 135.55 158.927 136.258L165.294 160.476L183.116 154.087C186.297 152.946 188.417 149.924 188.417 146.546L188.417 137.437L175.576 97.3428L175.576 67.0659L140.235 67.0659L140.235 85.5614L130.143 97.3428Z" fill="#FFCC99"/>
<path d="M189.045 40.2853L189.045 60.1549C189.045 63.9651 185.943 67.0659 182.134 67.0659L187.357 67.0659L193.915 67.0659C197.724 67.0659 200.826 63.9651 200.826 60.1549L200.826 40.2853C200.826 36.4771 197.724 33.4133 193.915 33.4133L182.134 33.4133C185.943 33.4133 189.045 36.4771 189.045 40.2853Z" fill="black"/>
<path d="M144.986 151.415L160.851 213.892C161.872 218.211 166.348 220.764 170.589 219.429C173.809 218.408 175.93 215.424 175.93 212.125C175.93 211.614 175.89 211.103 175.773 210.593L166.309 164.334" stroke="#231F20" stroke-width="4.125" stroke-miterlimit="10"/>
<path d="M129.239 133.116L116.477 198.813C115.809 202.111 117.576 205.41 120.639 206.745C121.582 207.137 122.524 207.334 123.467 207.334C126.608 207.334 129.553 205.252 130.417 202.033L144.986 151.415" stroke="#231F20" stroke-width="4.125" stroke-miterlimit="10"/>
<path d="M138.153 118.666L144.122 123.221L149.934 127.698C152.015 129.269 152.997 131.82 152.683 134.295C152.565 135.158 152.29 136.061 151.819 136.887L150.405 139.399C149.227 141.481 146.635 142.266 144.515 141.128L129.239 133.077L124.174 130.407C119.147 127.737 117.263 121.492 119.933 116.505L130.143 97.3428L140.234 85.5615L140.234 67.0659L187.357 67.0659L187.357 97.3428L200.198 137.437L200.198 146.546C200.198 149.924 198.077 152.946 194.896 154.087L166.309 164.334L158.926 136.258C158.73 135.55 158.651 134.845 158.651 134.176C158.651 130.29 161.4 126.793 165.406 126.088L176.479 124.084C180.367 123.377 184.176 125.616 185.433 129.308L189.163 139.949" stroke="#231F20" stroke-width="4.125" stroke-miterlimit="10"/>
<path d="M144.122 123.221L161.086 103.429" stroke="#231F20" stroke-width="4.125" stroke-miterlimit="10"/>
<rect x="204.875" y="67.375" width="77.4583" height="33" rx="7.33333" transform="rotate(-180 204.875 67.375)" fill="black" stroke="#231F20" stroke-width="3.66667"/>
<rect x="195.708" y="65.5417" width="66.4583" height="29.3333" rx="4.58333" transform="rotate(-180 195.708 65.5417)" fill="#66CC99"/>
<path d="M132.499 526.792V507C132.499 504.961 133.386 503.149 134.771 501.881H129.46C125.651 501.881 122.549 504.982 122.549 508.831V528.622C122.549 532.47 125.651 535.572 129.46 535.572H189.659C191.449 535.572 193.069 534.869 194.298 533.743H139.411C135.601 533.743 132.499 530.641 132.499 526.792Z" fill="black"/>
<path d="M202.476 368.422C202.677 367.627 203.01 366.906 203.432 366.262C203.039 365.982 202.679 365.662 202.225 365.462C201.282 365.068 200.34 364.871 199.397 364.871C196.256 364.871 193.35 366.992 192.525 370.252L189.297 383.352L189.557 420.846L202.476 368.422Z" fill="#FFCC99"/>
<path d="M214.492 415.898C214.664 415.614 214.893 415.402 215.09 415.15C213.876 414.407 212.518 413.997 211.138 413.997C209.99 413.997 208.855 414.288 207.803 414.793L204.283 432.745L214.492 415.898Z" fill="#FFCC99"/>
<path d="M147.146 366.931C147.146 366.734 147.107 366.537 147.107 366.381C147.107 364.918 147.61 363.577 148.394 362.433C146.761 361.286 144.669 360.805 142.576 361.338C139.395 362.123 137.156 364.951 137.156 368.21C137.156 368.368 137.196 368.563 137.196 368.76L139.096 394.981L151.388 425.44L147.146 366.931Z" fill="#FFCC99"/>
<path d="M173.771 352.557C173.85 350.906 174.461 349.412 175.412 348.199C174.259 347.505 172.921 347.083 171.477 347.083C167.354 347.083 164.016 350.303 163.82 354.388L162.902 374.653L170.708 420.217L173.771 352.557Z" fill="#FFCC99"/>
<path d="M145.929 469.775L124.018 394.536C123.821 393.869 123.743 393.24 123.743 392.573C123.743 391.26 124.128 389.987 124.817 388.891C122.798 387.396 120.05 387.025 117.601 388.237C115.205 389.415 113.792 391.849 113.792 394.402C113.792 395.07 113.87 395.698 114.067 396.366L135.978 471.604V501.881H183.101V500.05H145.929V469.775Z" fill="black"/>
<path d="M193.232 471.604L217.893 425.306C219.267 422.753 219.071 419.613 217.382 417.257C216.747 416.346 215.95 415.675 215.09 415.15C214.893 415.402 214.664 415.614 214.492 415.898L204.283 432.745L207.803 414.793C206.517 415.412 205.362 416.366 204.541 417.727L194.332 434.574L206.348 373.314C206.881 370.546 205.65 367.852 203.432 366.262C203.01 366.906 202.677 367.627 202.476 368.422L189.557 420.846L189.297 383.352L179.606 422.675L179.135 354.663C179.109 351.905 177.615 349.525 175.412 348.199C174.461 349.412 173.85 350.906 173.771 352.557L170.707 420.217L162.902 374.653L160.757 422.048L151.333 367.033C150.995 365.083 149.885 363.483 148.394 362.433C147.61 363.577 147.107 364.918 147.107 366.381C147.107 366.537 147.146 366.734 147.146 366.931L151.388 425.44L139.096 394.981L141.437 427.269L127.143 391.849C126.639 390.608 125.809 389.624 124.818 388.891C124.128 389.986 123.743 391.26 123.743 392.573C123.743 393.24 123.821 393.869 124.018 394.536L145.929 469.775V500.05H183.101V483.385L193.232 471.604Z" fill="#FFCC99"/>
<path d="M160.757 422.048L151.333 367.033C150.626 362.948 146.581 360.317 142.576 361.338C139.395 362.123 137.156 364.951 137.156 368.21C137.156 368.368 137.196 368.563 137.196 368.76L141.437 427.269" stroke="#231F20" stroke-width="4.125" stroke-miterlimit="10"/>
<path d="M179.606 422.675L179.135 354.663C179.095 350.461 175.679 347.083 171.477 347.083C167.354 347.083 164.016 350.303 163.82 354.388L160.757 422.048" stroke="#231F20" stroke-width="4.125" stroke-miterlimit="10"/>
<path d="M194.332 434.574L206.348 373.314C206.976 370.056 205.248 366.797 202.225 365.462C201.282 365.068 200.34 364.871 199.397 364.871C196.256 364.871 193.35 366.992 192.525 370.252L179.606 422.675" stroke="#231F20" stroke-width="4.125" stroke-miterlimit="10"/>
<path d="M141.437 427.269L127.143 391.849C125.612 388.08 121.253 386.431 117.601 388.237C115.205 389.415 113.792 391.849 113.792 394.402C113.792 395.07 113.87 395.698 114.067 396.366L135.978 471.604V501.881H183.101V483.385L193.232 471.604L217.893 425.307C219.267 422.753 219.071 419.614 217.382 417.257C215.851 415.057 213.495 413.997 211.138 413.997C208.586 413.997 206.034 415.254 204.541 417.727L194.331 434.574L175.758 436.616L165.273 456.8" stroke="#231F20" stroke-width="4.125" stroke-miterlimit="10"/>
<rect x="120.208" y="500.625" width="77.4583" height="33" rx="7.33333" fill="black" stroke="#231F20" stroke-width="3.66667"/>
<rect x="129.375" y="502.458" width="66.4583" height="29.3333" rx="4.58333" fill="#66CC99"/>
<rect x="69" y="274" width="184" height="46" rx="10" fill="#9C27B0"/>
<path d="M114.392 298.288V303.5H113.311V290.703H117.67C119 290.703 120.049 291.043 120.816 291.723C121.59 292.402 121.977 293.337 121.977 294.526C121.977 295.728 121.604 296.656 120.86 297.312C120.122 297.963 119.05 298.288 117.644 298.288H114.392ZM114.392 297.374H117.67C118.719 297.374 119.519 297.125 120.069 296.627C120.62 296.129 120.896 295.435 120.896 294.544C120.896 293.659 120.62 292.956 120.069 292.435C119.524 291.907 118.748 291.638 117.74 291.626H114.392V297.374ZM125.492 302.586H131.812V303.5H124.402V290.703H125.492V302.586ZM140.979 299.914H135.169L133.851 303.5H132.717L137.56 290.703H138.588L143.431 303.5H142.306L140.979 299.914ZM135.503 298.991H140.636L138.069 292.021L135.503 298.991ZM148.247 297.682L152.158 290.703H153.406L148.783 298.684V303.5H147.702V298.684L143.088 290.703H144.371L148.247 297.682ZM166.555 299.914H160.745L159.427 303.5H158.293L163.136 290.703H164.164L169.007 303.5H167.882L166.555 299.914ZM161.079 298.991H166.212L163.646 292.021L161.079 298.991ZM180.028 301.979C179.653 302.513 179.064 302.929 178.262 303.228C177.465 303.526 176.571 303.676 175.581 303.676C174.579 303.676 173.688 303.436 172.909 302.955C172.13 302.475 171.526 301.795 171.099 300.916C170.671 300.037 170.454 299.029 170.448 297.893V296.275C170.448 294.5 170.896 293.1 171.793 292.074C172.689 291.043 173.894 290.527 175.405 290.527C176.724 290.527 177.784 290.864 178.587 291.538C179.39 292.206 179.867 293.129 180.02 294.307H178.938C178.78 293.369 178.396 292.66 177.787 292.18C177.184 291.693 176.393 291.45 175.414 291.45C174.219 291.45 173.272 291.875 172.575 292.725C171.878 293.574 171.529 294.772 171.529 296.319V297.831C171.529 298.804 171.693 299.665 172.021 300.415C172.355 301.159 172.83 301.736 173.445 302.146C174.066 302.557 174.778 302.762 175.581 302.762C176.513 302.762 177.312 302.615 177.98 302.322C178.414 302.129 178.736 301.903 178.947 301.646V298.341H175.511V297.427H180.028V301.979ZM190.004 299.914H184.194L182.876 303.5H181.742L186.585 290.703H187.613L192.456 303.5H191.331L190.004 299.914ZM184.528 298.991H189.661L187.095 292.021L184.528 298.991ZM195.664 303.5H194.583V290.703H195.664V303.5ZM208.672 303.5H207.591L200.234 292.549V303.5H199.145V290.703H200.234L207.6 301.663V290.703H208.672V303.5Z" fill="#E3E1E1"/>
<path d="M23.8203 25.25L27.3359 21.7344C27.793 21.3125 27.793 20.6094 27.3359 20.1875L26.5625 19.4141C26.1406 18.957 25.4375 18.957 25.0156 19.4141L21.5 22.9297L17.9492 19.4141C17.5273 18.957 16.8242 18.957 16.4023 19.4141L15.6289 20.1875C15.1719 20.6094 15.1719 21.3125 15.6289 21.7344L19.1445 25.25L15.6289 28.8008C15.1719 29.2227 15.1719 29.9258 15.6289 30.3477L16.4023 31.1211C16.8242 31.5781 17.5273 31.5781 17.9492 31.1211L21.5 27.6055L25.0156 31.1211C25.4375 31.5781 26.1406 31.5781 26.5625 31.1211L27.3359 30.3477C27.793 29.9258 27.793 29.2227 27.3359 28.8008L23.8203 25.25Z" fill="white"/>
</g>
<defs>
<clipPath id="clip0_1_391">
<rect width="320" height="568" fill="white"/>
</clipPath>
</defs>
</svg>
