<svg width="320" height="568" viewBox="0 0 320 568" fill="none" xmlns="http://www.w3.org/2000/svg">
<g clip-path="url(#clip0_1_375)">
<rect width="320" height="568" fill="black"/>
<path d="M101.037 253.941L104.309 246.227H108.935L103.21 257.616V264H98.8643V257.616L93.1514 246.227H97.7534L101.037 253.941ZM124.914 255.479C124.914 257.213 124.593 258.747 123.95 260.082C123.307 261.416 122.391 262.446 121.203 263.17C120.023 263.886 118.676 264.244 117.163 264.244C115.649 264.244 114.306 263.898 113.134 263.207C111.962 262.507 111.047 261.51 110.388 260.216C109.737 258.922 109.395 257.437 109.362 255.76V254.759C109.362 253.018 109.68 251.484 110.314 250.157C110.957 248.823 111.873 247.793 113.061 247.069C114.257 246.345 115.616 245.982 117.138 245.982C118.644 245.982 119.986 246.34 121.167 247.057C122.347 247.773 123.262 248.794 123.913 250.121C124.572 251.439 124.906 252.953 124.914 254.662V255.479ZM120.556 254.735C120.556 252.969 120.259 251.63 119.665 250.719C119.079 249.799 118.237 249.339 117.138 249.339C114.99 249.339 113.854 250.951 113.732 254.173L113.72 255.479C113.72 257.221 114.009 258.56 114.587 259.496C115.165 260.431 116.023 260.899 117.163 260.899C118.245 260.899 119.079 260.44 119.665 259.52C120.251 258.6 120.548 257.278 120.556 255.553V254.735ZM141.064 246.227V257.86C141.064 259.178 140.783 260.322 140.222 261.29C139.66 262.25 138.854 262.983 137.805 263.487C136.755 263.992 135.514 264.244 134.082 264.244C131.917 264.244 130.212 263.683 128.967 262.56C127.722 261.437 127.087 259.898 127.062 257.945V246.227H131.372V258.031C131.42 259.976 132.324 260.948 134.082 260.948C134.969 260.948 135.64 260.704 136.096 260.216C136.551 259.728 136.779 258.934 136.779 257.835V246.227H141.064ZM163.745 257.372L165.783 246.227H170.031L166.259 264H161.816L159.436 253.868L157.104 264H152.673L148.889 246.227H153.149L155.188 257.372L157.629 246.227H161.267L163.745 257.372ZM176.269 264H171.997V246.227H176.269V264ZM194.091 264H189.831L183.532 252.94V264H179.248V246.227H183.532L189.819 257.286V246.227H194.091V264ZM200.695 258.373H197.363L196.838 246.227H201.22L200.695 258.373ZM196.716 262.157C196.716 261.555 196.931 261.062 197.363 260.68C197.802 260.289 198.347 260.094 198.999 260.094C199.65 260.094 200.191 260.289 200.622 260.68C201.062 261.062 201.281 261.555 201.281 262.157C201.281 262.759 201.062 263.255 200.622 263.646C200.191 264.028 199.65 264.22 198.999 264.22C198.347 264.22 197.802 264.028 197.363 263.646C196.931 263.255 196.716 262.759 196.716 262.157ZM220.703 242.516C214.013 242.516 208.593 247.936 208.593 254.625C208.593 261.314 214.013 266.734 220.703 266.734C227.392 266.734 232.812 261.314 232.812 254.625C232.812 247.936 227.392 242.516 220.703 242.516ZM227.587 261.559C225.732 263.414 223.291 264.391 220.703 264.391C218.066 264.391 215.625 263.414 213.769 261.559C211.914 259.703 210.937 257.262 210.937 254.625C210.937 252.037 211.914 249.596 213.769 247.74C215.625 245.885 218.066 244.859 220.703 244.859C223.291 244.859 225.732 245.885 227.587 247.74C229.443 249.596 230.468 252.037 230.468 254.625C230.468 257.262 229.443 259.703 227.587 261.559ZM224.609 249.547C223.437 249.547 222.021 251.012 221.875 253.062C221.826 253.453 222.363 253.648 222.558 253.258L223.046 252.428C223.437 251.793 223.974 251.402 224.56 251.402C225.195 251.402 225.732 251.793 226.123 252.428L226.562 253.258C226.806 253.648 227.343 253.453 227.294 253.062C227.148 251.012 225.732 249.547 224.609 249.547ZM214.794 253.258L215.234 252.428C215.625 251.793 216.162 251.402 216.796 251.402C217.382 251.402 217.919 251.793 218.31 252.428L218.798 253.258C218.994 253.648 219.531 253.453 219.482 253.062C219.335 251.012 217.919 249.547 216.748 249.547C215.625 249.547 214.208 251.012 214.013 253.062C214.013 253.453 214.55 253.648 214.794 253.258ZM226.269 256.188H215.087C214.697 256.188 214.404 256.529 214.453 256.92C214.794 259.85 217.333 262.047 220.361 262.047H220.996C224.072 262.047 226.562 259.85 226.904 256.92C226.953 256.529 226.66 256.188 226.269 256.188Z" fill="white"/>
<path d="M120.639 206.745C117.577 205.41 115.809 202.111 116.477 198.813L129.239 133.116L129.239 133.077L144.515 141.128C146.635 142.266 149.227 141.481 150.405 139.399L151.819 136.887C152.29 136.061 152.565 135.158 152.683 134.295L158.651 134.176C158.651 134.845 158.73 135.55 158.926 136.258L166.309 164.334L175.773 210.593C175.89 211.103 175.93 211.614 175.93 212.124C175.93 215.424 173.809 218.408 170.589 219.429C166.348 220.764 161.871 218.211 160.851 213.892L144.986 151.415L130.417 202.033C129.553 205.252 126.608 207.334 123.467 207.334C122.524 207.334 121.582 207.137 120.639 206.745Z" fill="#FFCC99"/>
<path d="M188.417 137.437L188.417 146.546C188.417 149.924 186.297 152.946 183.116 154.087L165.294 160.476L166.309 164.334L194.896 154.087C198.077 152.946 200.198 149.924 200.198 146.546L200.198 137.437L187.357 97.3428L187.357 67.0659L175.576 67.0659L175.576 97.3428L188.417 137.437" fill="black"/>
<path d="M130.143 97.3428L119.933 116.505C117.263 121.492 119.147 127.737 124.174 130.407L129.239 133.077L144.515 141.128C146.635 142.266 149.227 141.481 150.405 139.399L151.819 136.887C152.29 136.061 152.565 135.158 152.683 134.295L158.651 134.176C158.651 134.845 158.73 135.55 158.926 136.258L165.294 160.476L183.116 154.087C186.297 152.946 188.417 149.924 188.417 146.546L188.417 137.437L175.576 97.3428L175.576 67.0659L140.234 67.0659L140.234 85.5614L130.143 97.3428Z" fill="#FFCC99"/>
<path d="M189.046 40.2853L189.046 60.1549C189.046 63.9651 185.943 67.0659 182.134 67.0659L187.357 67.0659L193.915 67.0659C197.724 67.0659 200.826 63.9651 200.826 60.1549L200.826 40.2853C200.826 36.4771 197.724 33.4133 193.915 33.4133L182.134 33.4133C185.943 33.4133 189.046 36.4771 189.046 40.2853Z" fill="black"/>
<path d="M144.986 151.415L160.851 213.892C161.872 218.211 166.348 220.764 170.589 219.429C173.809 218.408 175.93 215.424 175.93 212.125C175.93 211.614 175.89 211.103 175.773 210.593L166.309 164.334" stroke="#231F20" stroke-width="4.125" stroke-miterlimit="10"/>
<path d="M129.239 133.116L116.477 198.813C115.809 202.111 117.577 205.41 120.64 206.745C121.582 207.137 122.524 207.334 123.467 207.334C126.608 207.334 129.553 205.252 130.417 202.033L144.986 151.415" stroke="#231F20" stroke-width="4.125" stroke-miterlimit="10"/>
<path d="M138.153 118.666L144.122 123.221L149.934 127.698C152.015 129.269 152.997 131.82 152.683 134.295C152.565 135.158 152.29 136.061 151.819 136.887L150.405 139.399C149.227 141.481 146.635 142.266 144.515 141.128L129.239 133.077L124.174 130.407C119.147 127.737 117.263 121.492 119.933 116.505L130.143 97.3428L140.235 85.5615L140.235 67.0659L187.357 67.0659L187.357 97.3428L200.198 137.437L200.198 146.546C200.198 149.924 198.077 152.946 194.896 154.087L166.309 164.334L158.927 136.258C158.73 135.55 158.652 134.845 158.652 134.176C158.652 130.29 161.4 126.793 165.406 126.088L176.479 124.084C180.367 123.377 184.176 125.616 185.433 129.308L189.163 139.949" stroke="#231F20" stroke-width="4.125" stroke-miterlimit="10"/>
<path d="M144.122 123.221L161.086 103.429" stroke="#231F20" stroke-width="4.125" stroke-miterlimit="10"/>
<rect x="204.875" y="67.375" width="77.4583" height="33" rx="7.33333" transform="rotate(-180 204.875 67.375)" fill="black" stroke="#231F20" stroke-width="3.66667"/>
<rect x="195.708" y="65.5417" width="66.4583" height="29.3333" rx="4.58333" transform="rotate(-180 195.708 65.5417)" fill="#66CC99"/>
<path d="M149.176 412.351L193.117 391.068C193.57 390.849 194.036 390.673 194.502 390.507C191.13 389.297 187.353 389.469 184.035 391.068L140.094 412.351C135.853 414.432 133.144 418.753 133.144 423.464V501.767H142.226V423.464C142.226 418.753 144.935 414.432 149.176 412.351Z" fill="black"/>
<path d="M230.529 446.436V435.284C230.529 431.712 228.606 428.373 225.542 426.527L214.154 419.772V408.934C214.154 405.323 212.387 401.984 209.364 399.983L197.426 391.971C196.505 391.352 195.521 390.873 194.502 390.507C194.036 390.673 193.57 390.849 193.117 391.068L149.176 412.351C144.935 414.432 142.226 418.753 142.226 423.464V501.767H188.551H188.631V478.245H197.712H197.74L225.386 456.882C228.606 454.368 230.529 450.521 230.529 446.436Z" fill="#FFCC99"/>
<path d="M132.958 528.508V508.678C132.958 504.867 136.059 501.767 139.869 501.767H133.144H130.788C126.978 501.767 123.875 504.867 123.875 508.678V528.508C123.875 532.316 126.978 535.419 130.788 535.419H139.869C136.059 535.419 132.958 532.316 132.958 528.508Z" fill="black"/>
<path d="M188.551 501.767H133.144V423.464C133.144 418.753 135.853 414.432 140.094 412.351L184.035 391.068C188.354 388.987 193.46 389.301 197.426 391.971L209.364 399.983C212.387 401.984 214.154 405.323 214.154 408.934V419.772V436.03C214.154 440.349 211.759 444.277 207.91 446.2L182.111 459.317C178.498 461.162 174.218 461.004 170.763 458.964L154.662 449.381C151.443 447.496 149.478 444.041 149.478 440.31C149.478 437.64 150.579 435.245 152.306 433.477C154.035 431.751 156.469 430.69 159.1 430.69H166.169" stroke="#231F20" stroke-width="4.125" stroke-miterlimit="10"/>
<path d="M161.141 478.245H197.74L225.386 456.882C228.606 454.368 230.529 450.521 230.529 446.436V435.284C230.529 431.712 228.606 428.373 225.542 426.527L214.154 419.772" stroke="#231F20" stroke-width="4.125" stroke-miterlimit="10"/>
<path d="M188.631 501.767V478.245" stroke="#231F20" stroke-width="4.125" stroke-miterlimit="10"/>
<path d="M166.169 419.772V441.174" stroke="#231F20" stroke-width="4.125" stroke-miterlimit="10"/>
<rect x="120.208" y="500.625" width="77.4583" height="33" rx="7.33333" fill="black" stroke="#231F20" stroke-width="3.66667"/>
<rect x="129.375" y="502.458" width="66.4583" height="29.3333" rx="4.58333" fill="#66CC99"/>
<rect x="69" y="274" width="184" height="46" rx="10" fill="#37209D"/>
<path d="M114.392 298.288V303.5H113.311V290.703H117.67C119 290.703 120.049 291.043 120.816 291.723C121.59 292.402 121.977 293.337 121.977 294.526C121.977 295.728 121.604 296.656 120.86 297.312C120.122 297.963 119.05 298.288 117.644 298.288H114.392ZM114.392 297.374H117.67C118.719 297.374 119.519 297.125 120.069 296.627C120.62 296.129 120.896 295.435 120.896 294.544C120.896 293.659 120.62 292.956 120.069 292.435C119.524 291.907 118.748 291.638 117.74 291.626H114.392V297.374ZM125.492 302.586H131.812V303.5H124.402V290.703H125.492V302.586ZM140.979 299.914H135.169L133.851 303.5H132.717L137.56 290.703H138.588L143.431 303.5H142.306L140.979 299.914ZM135.503 298.991H140.636L138.069 292.021L135.503 298.991ZM148.247 297.682L152.158 290.703H153.406L148.783 298.684V303.5H147.702V298.684L143.088 290.703H144.371L148.247 297.682ZM166.555 299.914H160.745L159.427 303.5H158.293L163.136 290.703H164.164L169.007 303.5H167.882L166.555 299.914ZM161.079 298.991H166.212L163.646 292.021L161.079 298.991ZM180.028 301.979C179.653 302.513 179.064 302.929 178.262 303.228C177.465 303.526 176.571 303.676 175.581 303.676C174.579 303.676 173.688 303.436 172.909 302.955C172.13 302.475 171.526 301.795 171.099 300.916C170.671 300.037 170.454 299.029 170.448 297.893V296.275C170.448 294.5 170.896 293.1 171.793 292.074C172.689 291.043 173.894 290.527 175.405 290.527C176.724 290.527 177.784 290.864 178.587 291.538C179.39 292.206 179.867 293.129 180.02 294.307H178.938C178.78 293.369 178.396 292.66 177.787 292.18C177.184 291.693 176.393 291.45 175.414 291.45C174.219 291.45 173.272 291.875 172.575 292.725C171.878 293.574 171.529 294.772 171.529 296.319V297.831C171.529 298.804 171.693 299.665 172.021 300.415C172.355 301.159 172.83 301.736 173.445 302.146C174.066 302.557 174.778 302.762 175.581 302.762C176.513 302.762 177.312 302.615 177.98 302.322C178.414 302.129 178.736 301.903 178.947 301.646V298.341H175.511V297.427H180.028V301.979ZM190.004 299.914H184.194L182.876 303.5H181.742L186.585 290.703H187.613L192.456 303.5H191.331L190.004 299.914ZM184.528 298.991H189.661L187.095 292.021L184.528 298.991ZM195.664 303.5H194.583V290.703H195.664V303.5ZM208.672 303.5H207.591L200.234 292.549V303.5H199.145V290.703H200.234L207.6 301.663V290.703H208.672V303.5Z" fill="#E3E1E1"/>
<path d="M23.8203 25.25L27.3359 21.7344C27.793 21.3125 27.793 20.6094 27.3359 20.1875L26.5625 19.4141C26.1406 18.957 25.4375 18.957 25.0156 19.4141L21.5 22.9297L17.9492 19.4141C17.5273 18.957 16.8242 18.957 16.4023 19.4141L15.6289 20.1875C15.1719 20.6094 15.1719 21.3125 15.6289 21.7344L19.1445 25.25L15.6289 28.8008C15.1719 29.2227 15.1719 29.9258 15.6289 30.3477L16.4023 31.1211C16.8242 31.5781 17.5273 31.5781 17.9492 31.1211L21.5 27.6055L25.0156 31.1211C25.4375 31.5781 26.1406 31.5781 26.5625 31.1211L27.3359 30.3477C27.793 29.9258 27.793 29.2227 27.3359 28.8008L23.8203 25.25Z" fill="white"/>
</g>
<defs>
<clipPath id="clip0_1_375">
<rect width="320" height="568" fill="white"/>
</clipPath>
</defs>
</svg>
