<svg width="320" height="568" viewBox="0 0 320 568" fill="none" xmlns="http://www.w3.org/2000/svg">
<g clip-path="url(#clip0_1_359)">
<rect width="320" height="568" fill="black"/>
<path d="M78.2251 264H73.9526V246.227H78.2251V264ZM94.79 249.535H89.4556V264H85.1709V249.535H79.9341V246.227H94.79V249.535ZM97.8784 251.793L96.0718 250.816C96.7472 249.645 97.0931 248.497 97.1094 247.374V245.25H100.112V247.24C100.112 247.997 99.8926 248.806 99.4531 249.669C99.0218 250.523 98.4969 251.231 97.8784 251.793ZM111.855 259.276C111.855 258.649 111.632 258.161 111.184 257.811C110.745 257.461 109.967 257.099 108.853 256.725C107.738 256.35 106.826 255.988 106.118 255.638C103.815 254.507 102.664 252.953 102.664 250.975C102.664 249.99 102.948 249.124 103.518 248.375C104.096 247.618 104.91 247.032 105.959 246.617C107.009 246.194 108.189 245.982 109.5 245.982C110.777 245.982 111.921 246.21 112.93 246.666C113.947 247.122 114.736 247.773 115.298 248.619C115.859 249.457 116.14 250.418 116.14 251.5H111.868C111.868 250.776 111.644 250.214 111.196 249.815C110.757 249.417 110.159 249.217 109.402 249.217C108.637 249.217 108.031 249.388 107.583 249.73C107.144 250.064 106.924 250.491 106.924 251.012C106.924 251.467 107.168 251.882 107.656 252.257C108.145 252.623 109.003 253.006 110.232 253.404C111.461 253.795 112.47 254.218 113.259 254.674C115.18 255.781 116.14 257.306 116.14 259.251C116.14 260.806 115.554 262.027 114.382 262.914C113.21 263.801 111.603 264.244 109.561 264.244C108.12 264.244 106.814 263.988 105.642 263.475C104.478 262.954 103.599 262.246 103.005 261.351C102.419 260.448 102.126 259.41 102.126 258.238H106.423C106.423 259.19 106.667 259.894 107.156 260.35C107.652 260.798 108.454 261.021 109.561 261.021C110.269 261.021 110.826 260.871 111.233 260.57C111.648 260.261 111.855 259.829 111.855 259.276ZM134.658 260.68H128.787L127.761 264H123.184L129.702 246.227H133.73L140.298 264H135.696L134.658 260.68ZM129.812 257.372H133.633L131.716 251.207L129.812 257.372ZM147.83 264V246.227H153.555C155.125 246.227 156.537 246.585 157.791 247.301C159.044 248.009 160.02 249.014 160.72 250.316C161.428 251.61 161.786 253.062 161.794 254.674V255.492C161.794 257.119 161.449 258.58 160.757 259.874C160.073 261.16 159.105 262.169 157.852 262.901C156.606 263.626 155.215 263.992 153.677 264H147.83ZM152.114 249.535V260.704H153.604C154.832 260.704 155.776 260.269 156.436 259.398C157.095 258.519 157.424 257.217 157.424 255.492V254.723C157.424 253.006 157.095 251.712 156.436 250.841C155.776 249.97 154.816 249.535 153.555 249.535H152.114ZM170.596 257.726H168.276V264H163.992V246.227H170.986C173.094 246.227 174.742 246.694 175.93 247.63C177.118 248.566 177.712 249.889 177.712 251.598C177.712 252.835 177.46 253.86 176.956 254.674C176.459 255.488 175.678 256.147 174.612 256.651L178.323 263.817V264H173.733L170.596 257.726ZM168.276 254.417H170.986C171.8 254.417 172.41 254.206 172.817 253.783C173.232 253.351 173.44 252.753 173.44 251.988C173.44 251.223 173.232 250.625 172.817 250.194C172.402 249.754 171.792 249.535 170.986 249.535H168.276V254.417ZM190.396 260.68H184.524L183.499 264H178.921L185.439 246.227H189.468L196.035 264H191.433L190.396 260.68ZM185.549 257.372H189.37L187.454 251.207L185.549 257.372ZM210.623 257.372L212.661 246.227H216.909L213.137 264H208.694L206.313 253.868L203.982 264H199.551L195.767 246.227H200.027L202.065 257.372L204.507 246.227H208.145L210.623 257.372ZM235.574 242.516C228.884 242.516 223.464 247.936 223.464 254.625C223.464 261.314 228.884 266.734 235.574 266.734C242.263 266.734 247.683 261.314 247.683 254.625C247.683 247.936 242.263 242.516 235.574 242.516ZM235.574 264.391C230.154 264.391 225.808 260.045 225.808 254.625C225.808 249.254 230.154 244.859 235.574 244.859C240.945 244.859 245.339 249.254 245.339 254.625C245.339 260.045 240.945 264.391 235.574 264.391ZM231.667 253.844C232.498 253.844 233.23 253.16 233.23 252.281C233.23 251.451 232.498 250.719 231.667 250.719C230.789 250.719 230.105 251.451 230.105 252.281C230.105 253.16 230.789 253.844 231.667 253.844ZM239.48 250.719C238.601 250.719 237.917 251.451 237.917 252.281C237.917 253.16 238.601 253.844 239.48 253.844C240.31 253.844 241.042 253.16 241.042 252.281C241.042 251.451 240.31 250.719 239.48 250.719ZM239.871 257.75H231.277C230.593 257.75 230.105 258.287 230.105 258.922C230.105 259.605 230.593 260.094 231.277 260.094H239.871C240.505 260.094 241.042 259.605 241.042 258.922C241.042 258.287 240.505 257.75 239.871 257.75Z" fill="white"/>
<path d="M176.824 155.649L132.883 176.932C132.43 177.151 131.964 177.327 131.498 177.493C134.87 178.703 138.647 178.531 141.965 176.932L185.906 155.649C190.147 153.568 192.856 149.247 192.856 144.536L192.856 66.2333L183.774 66.2333L183.774 144.536C183.774 149.247 181.065 153.568 176.824 155.649Z" fill="black"/>
<path d="M95.4707 121.564L95.4707 132.716C95.4707 136.288 97.3943 139.627 100.458 141.473L111.846 148.228L111.846 159.066C111.846 162.677 113.613 166.016 116.636 168.017L128.574 176.029C129.495 176.648 130.479 177.127 131.498 177.493C131.964 177.327 132.43 177.151 132.883 176.932L176.824 155.649C181.065 153.568 183.774 149.247 183.774 144.536L183.774 66.2333L137.449 66.2333L137.369 66.2333L137.369 89.7552L128.288 89.7552L128.26 89.7552L100.614 111.118C97.3943 113.632 95.4707 117.479 95.4707 121.564Z" fill="#FFCC99"/>
<path d="M193.042 39.4918L193.042 59.3224C193.042 63.1325 189.941 66.2334 186.131 66.2334L192.856 66.2334L195.212 66.2334C199.022 66.2334 202.125 63.1325 202.125 59.3224L202.125 39.4918C202.125 35.6835 199.022 32.5808 195.212 32.5808L186.131 32.5808C189.941 32.5808 193.042 35.6835 193.042 39.4918Z" fill="black"/>
<path d="M137.449 66.2333L192.856 66.2333L192.856 144.536C192.856 149.247 190.147 153.568 185.906 155.649L141.965 176.932C137.646 179.013 132.54 178.699 128.573 176.029L116.636 168.017C113.613 166.016 111.846 162.677 111.846 159.066L111.846 148.228L111.846 131.97C111.846 127.651 114.241 123.723 118.09 121.8L143.888 108.683C147.502 106.838 151.782 106.996 155.237 109.036L171.337 118.619C174.557 120.504 176.521 123.959 176.521 127.69C176.521 130.36 175.42 132.755 173.694 134.523C171.965 136.249 169.531 137.31 166.9 137.31L159.831 137.31" stroke="#231F20" stroke-width="4.125" stroke-miterlimit="10"/>
<path d="M164.859 89.7552L128.26 89.7552L100.614 111.118C97.3943 113.632 95.4706 117.479 95.4706 121.564L95.4706 132.716C95.4706 136.288 97.3943 139.627 100.458 141.473L111.846 148.228" stroke="#231F20" stroke-width="4.125" stroke-miterlimit="10"/>
<path d="M137.369 66.2333L137.369 89.7552" stroke="#231F20" stroke-width="4.125" stroke-miterlimit="10"/>
<path d="M159.831 148.228L159.831 126.826" stroke="#231F20" stroke-width="4.125" stroke-miterlimit="10"/>
<rect x="205.792" y="67.375" width="77.4583" height="33" rx="7.33333" transform="rotate(-180 205.792 67.375)" fill="black" stroke="#231F20" stroke-width="3.66667"/>
<rect x="196.625" y="65.5417" width="66.4583" height="29.3333" rx="4.58333" transform="rotate(-180 196.625 65.5417)" fill="#66CC99"/>
<path d="M149.176 412.351L193.117 391.068C193.57 390.849 194.036 390.673 194.502 390.507C191.13 389.297 187.353 389.469 184.035 391.068L140.094 412.351C135.853 414.432 133.144 418.753 133.144 423.464V501.767H142.226V423.464C142.226 418.753 144.935 414.432 149.176 412.351Z" fill="black"/>
<path d="M230.529 446.436V435.284C230.529 431.712 228.606 428.373 225.542 426.527L214.154 419.772V408.934C214.154 405.323 212.387 401.984 209.364 399.983L197.426 391.971C196.505 391.352 195.521 390.873 194.502 390.507C194.036 390.673 193.57 390.849 193.117 391.068L149.176 412.351C144.935 414.432 142.226 418.753 142.226 423.464V501.767H188.551H188.631V478.245H197.712H197.74L225.386 456.882C228.606 454.368 230.529 450.521 230.529 446.436Z" fill="#FFCC99"/>
<path d="M132.958 528.508V508.678C132.958 504.867 136.059 501.767 139.869 501.767H133.144H130.788C126.978 501.767 123.875 504.867 123.875 508.678V528.508C123.875 532.316 126.978 535.419 130.788 535.419H139.869C136.059 535.419 132.958 532.316 132.958 528.508Z" fill="black"/>
<path d="M188.551 501.767H133.144V423.464C133.144 418.753 135.853 414.432 140.094 412.351L184.035 391.068C188.354 388.987 193.46 389.301 197.427 391.971L209.364 399.983C212.387 401.984 214.154 405.323 214.154 408.934V419.772V436.03C214.154 440.349 211.759 444.277 207.91 446.2L182.112 459.317C178.498 461.162 174.218 461.004 170.763 458.964L154.663 449.381C151.443 447.496 149.479 444.041 149.479 440.31C149.479 437.64 150.58 435.245 152.306 433.477C154.035 431.751 156.469 430.69 159.1 430.69H166.169" stroke="#231F20" stroke-width="4.125" stroke-miterlimit="10"/>
<path d="M161.141 478.245H197.74L225.386 456.882C228.606 454.368 230.529 450.521 230.529 446.436V435.284C230.529 431.712 228.606 428.373 225.542 426.527L214.154 419.772" stroke="#231F20" stroke-width="4.125" stroke-miterlimit="10"/>
<path d="M188.631 501.767V478.245" stroke="#231F20" stroke-width="4.125" stroke-miterlimit="10"/>
<path d="M166.169 419.772V441.174" stroke="#231F20" stroke-width="4.125" stroke-miterlimit="10"/>
<rect x="120.208" y="500.625" width="77.4583" height="33" rx="7.33333" fill="black" stroke="#231F20" stroke-width="3.66667"/>
<rect x="129.375" y="502.458" width="66.4583" height="29.3333" rx="4.58333" fill="#66CC99"/>
<rect x="69" y="274" width="184" height="46" rx="10" fill="#37209D"/>
<path d="M114.392 298.288V303.5H113.311V290.703H117.67C119 290.703 120.049 291.043 120.816 291.723C121.59 292.402 121.977 293.337 121.977 294.526C121.977 295.728 121.604 296.656 120.86 297.312C120.122 297.963 119.05 298.288 117.644 298.288H114.392ZM114.392 297.374H117.67C118.719 297.374 119.519 297.125 120.069 296.627C120.62 296.129 120.896 295.435 120.896 294.544C120.896 293.659 120.62 292.956 120.069 292.435C119.524 291.907 118.748 291.638 117.74 291.626H114.392V297.374ZM125.492 302.586H131.812V303.5H124.402V290.703H125.492V302.586ZM140.979 299.914H135.169L133.851 303.5H132.717L137.56 290.703H138.588L143.431 303.5H142.306L140.979 299.914ZM135.503 298.991H140.636L138.069 292.021L135.503 298.991ZM148.247 297.682L152.158 290.703H153.406L148.783 298.684V303.5H147.702V298.684L143.088 290.703H144.371L148.247 297.682ZM166.555 299.914H160.745L159.427 303.5H158.293L163.136 290.703H164.164L169.007 303.5H167.882L166.555 299.914ZM161.079 298.991H166.212L163.646 292.021L161.079 298.991ZM180.028 301.979C179.653 302.513 179.064 302.929 178.262 303.228C177.465 303.526 176.571 303.676 175.581 303.676C174.579 303.676 173.688 303.436 172.909 302.955C172.13 302.475 171.526 301.795 171.099 300.916C170.671 300.037 170.454 299.029 170.448 297.893V296.275C170.448 294.5 170.896 293.1 171.793 292.074C172.689 291.043 173.894 290.527 175.405 290.527C176.724 290.527 177.784 290.864 178.587 291.538C179.39 292.206 179.867 293.129 180.02 294.307H178.938C178.78 293.369 178.396 292.66 177.787 292.18C177.184 291.693 176.393 291.45 175.414 291.45C174.219 291.45 173.272 291.875 172.575 292.725C171.878 293.574 171.529 294.772 171.529 296.319V297.831C171.529 298.804 171.693 299.665 172.021 300.415C172.355 301.159 172.83 301.736 173.445 302.146C174.066 302.557 174.778 302.762 175.581 302.762C176.513 302.762 177.312 302.615 177.98 302.322C178.414 302.129 178.736 301.903 178.947 301.646V298.341H175.511V297.427H180.028V301.979ZM190.004 299.914H184.194L182.876 303.5H181.742L186.585 290.703H187.613L192.456 303.5H191.331L190.004 299.914ZM184.528 298.991H189.661L187.095 292.021L184.528 298.991ZM195.664 303.5H194.583V290.703H195.664V303.5ZM208.672 303.5H207.591L200.234 292.549V303.5H199.145V290.703H200.234L207.6 301.663V290.703H208.672V303.5Z" fill="#E3E1E1"/>
<path d="M23.8203 25.25L27.3359 21.7344C27.793 21.3125 27.793 20.6094 27.3359 20.1875L26.5625 19.4141C26.1406 18.957 25.4375 18.957 25.0156 19.4141L21.5 22.9297L17.9492 19.4141C17.5273 18.957 16.8242 18.957 16.4023 19.4141L15.6289 20.1875C15.1719 20.6094 15.1719 21.3125 15.6289 21.7344L19.1445 25.25L15.6289 28.8008C15.1719 29.2227 15.1719 29.9258 15.6289 30.3477L16.4023 31.1211C16.8242 31.5781 17.5273 31.5781 17.9492 31.1211L21.5 27.6055L25.0156 31.1211C25.4375 31.5781 26.1406 31.5781 26.5625 31.1211L27.3359 30.3477C27.793 29.9258 27.793 29.2227 27.3359 28.8008L23.8203 25.25Z" fill="white"/>
</g>
<defs>
<clipPath id="clip0_1_359">
<rect width="320" height="568" fill="white"/>
</clipPath>
</defs>
</svg>
