<svg width="320" height="568" viewBox="0 0 320 568" fill="none" xmlns="http://www.w3.org/2000/svg">
<g clip-path="url(#clip0_1_407)">
<rect width="320" height="568" fill="black"/>
<path d="M81.2251 264H76.9526V246.227H81.2251V264ZM97.79 249.535H92.4556V264H88.1709V249.535H82.9341V246.227H97.79V249.535ZM100.878 251.793L99.0718 250.816C99.7472 249.645 100.093 248.497 100.109 247.374V245.25H103.112V247.24C103.112 247.997 102.893 248.806 102.453 249.669C102.022 250.523 101.497 251.231 100.878 251.793ZM114.855 259.276C114.855 258.649 114.632 258.161 114.184 257.811C113.745 257.461 112.967 257.099 111.853 256.725C110.738 256.35 109.826 255.988 109.118 255.638C106.815 254.507 105.664 252.953 105.664 250.975C105.664 249.99 105.948 249.124 106.518 248.375C107.096 247.618 107.91 247.032 108.959 246.617C110.009 246.194 111.189 245.982 112.5 245.982C113.777 245.982 114.921 246.21 115.93 246.666C116.947 247.122 117.736 247.773 118.298 248.619C118.859 249.457 119.14 250.418 119.14 251.5H114.868C114.868 250.776 114.644 250.214 114.196 249.815C113.757 249.417 113.159 249.217 112.402 249.217C111.637 249.217 111.031 249.388 110.583 249.73C110.144 250.064 109.924 250.491 109.924 251.012C109.924 251.467 110.168 251.882 110.656 252.257C111.145 252.623 112.003 253.006 113.232 253.404C114.461 253.795 115.47 254.218 116.259 254.674C118.18 255.781 119.14 257.306 119.14 259.251C119.14 260.806 118.554 262.027 117.382 262.914C116.21 263.801 114.603 264.244 112.561 264.244C111.12 264.244 109.814 263.988 108.642 263.475C107.478 262.954 106.599 262.246 106.005 261.351C105.419 260.448 105.126 259.41 105.126 258.238H109.423C109.423 259.19 109.667 259.894 110.156 260.35C110.652 260.798 111.454 261.021 112.561 261.021C113.269 261.021 113.826 260.871 114.233 260.57C114.648 260.261 114.855 259.829 114.855 259.276ZM137.658 260.68H131.787L130.761 264H126.184L132.702 246.227H136.73L143.298 264H138.696L137.658 260.68ZM132.812 257.372H136.633L134.716 251.207L132.812 257.372ZM150.83 264V246.227H156.555C158.125 246.227 159.537 246.585 160.791 247.301C162.044 248.009 163.02 249.014 163.72 250.316C164.428 251.61 164.786 253.062 164.794 254.674V255.492C164.794 257.119 164.449 258.58 163.757 259.874C163.073 261.16 162.105 262.169 160.852 262.901C159.606 263.626 158.215 263.992 156.677 264H150.83ZM155.114 249.535V260.704H156.604C157.832 260.704 158.776 260.269 159.436 259.398C160.095 258.519 160.424 257.217 160.424 255.492V254.723C160.424 253.006 160.095 251.712 159.436 250.841C158.776 249.97 157.816 249.535 156.555 249.535H155.114ZM173.596 257.726H171.276V264H166.992V246.227H173.986C176.094 246.227 177.742 246.694 178.93 247.63C180.118 248.566 180.712 249.889 180.712 251.598C180.712 252.835 180.46 253.86 179.956 254.674C179.459 255.488 178.678 256.147 177.612 256.651L181.323 263.817V264H176.733L173.596 257.726ZM171.276 254.417H173.986C174.8 254.417 175.41 254.206 175.817 253.783C176.232 253.351 176.44 252.753 176.44 251.988C176.44 251.223 176.232 250.625 175.817 250.194C175.402 249.754 174.792 249.535 173.986 249.535H171.276V254.417ZM193.396 260.68H187.524L186.499 264H181.921L188.439 246.227H192.468L199.035 264H194.433L193.396 260.68ZM188.549 257.372H192.37L190.454 251.207L188.549 257.372ZM213.623 257.372L215.661 246.227H219.909L216.137 264H211.694L209.313 253.868L206.982 264H202.551L198.767 246.227H203.027L205.065 257.372L207.507 246.227H211.145L213.623 257.372ZM238.574 242.516C231.884 242.516 226.464 247.936 226.464 254.625C226.464 261.314 231.884 266.734 238.574 266.734C245.263 266.734 250.683 261.314 250.683 254.625C250.683 247.936 245.263 242.516 238.574 242.516ZM238.574 264.391C233.154 264.391 228.808 260.045 228.808 254.625C228.808 249.254 233.154 244.859 238.574 244.859C243.945 244.859 248.339 249.254 248.339 254.625C248.339 260.045 243.945 264.391 238.574 264.391ZM234.667 253.844C235.498 253.844 236.23 253.16 236.23 252.281C236.23 251.451 235.498 250.719 234.667 250.719C233.789 250.719 233.105 251.451 233.105 252.281C233.105 253.16 233.789 253.844 234.667 253.844ZM242.48 250.719C241.601 250.719 240.917 251.451 240.917 252.281C240.917 253.16 241.601 253.844 242.48 253.844C243.31 253.844 244.042 253.16 244.042 252.281C244.042 251.451 243.31 250.719 242.48 250.719ZM242.871 257.75H234.277C233.593 257.75 233.105 258.287 233.105 258.922C233.105 259.605 233.593 260.094 234.277 260.094H242.871C243.505 260.094 244.042 259.605 244.042 258.922C244.042 258.287 243.505 257.75 242.871 257.75Z" fill="white"/>
<path d="M120.64 206.745C117.577 205.41 115.809 202.111 116.477 198.813L129.239 133.116L129.239 133.077L144.515 141.128C146.635 142.266 149.227 141.481 150.405 139.399L151.819 136.887C152.29 136.061 152.565 135.158 152.683 134.295L158.652 134.176C158.652 134.845 158.73 135.55 158.927 136.258L166.309 164.334L175.773 210.593C175.89 211.103 175.93 211.614 175.93 212.124C175.93 215.424 173.809 218.408 170.589 219.429C166.348 220.764 161.872 218.211 160.851 213.892L144.986 151.415L130.417 202.033C129.553 205.252 126.608 207.334 123.467 207.334C122.524 207.334 121.582 207.137 120.64 206.745Z" fill="#FFCC99"/>
<path d="M188.417 137.437L188.417 146.546C188.417 149.924 186.297 152.946 183.116 154.087L165.294 160.476L166.309 164.334L194.896 154.087C198.077 152.946 200.198 149.924 200.198 146.546L200.198 137.437L187.357 97.3428L187.357 67.0659L175.576 67.0659L175.576 97.3428L188.417 137.437" fill="black"/>
<path d="M130.143 97.3428L119.933 116.505C117.263 121.492 119.147 127.737 124.174 130.407L129.239 133.077L144.515 141.128C146.635 142.266 149.227 141.481 150.405 139.399L151.819 136.887C152.29 136.061 152.565 135.158 152.683 134.295L158.652 134.176C158.652 134.845 158.73 135.55 158.927 136.258L165.294 160.476L183.116 154.087C186.297 152.946 188.417 149.924 188.417 146.546L188.417 137.437L175.576 97.3428L175.576 67.0659L140.235 67.0659L140.235 85.5614L130.143 97.3428Z" fill="#FFCC99"/>
<path d="M189.045 40.2853L189.045 60.1549C189.045 63.9651 185.943 67.0659 182.134 67.0659L187.357 67.0659L193.915 67.0659C197.724 67.0659 200.826 63.9651 200.826 60.1549L200.826 40.2853C200.826 36.4771 197.724 33.4133 193.915 33.4133L182.134 33.4133C185.943 33.4133 189.045 36.4771 189.045 40.2853Z" fill="black"/>
<path d="M144.986 151.415L160.851 213.892C161.872 218.211 166.348 220.764 170.589 219.429C173.809 218.408 175.93 215.424 175.93 212.125C175.93 211.614 175.89 211.103 175.773 210.593L166.309 164.334" stroke="#231F20" stroke-width="4.125" stroke-miterlimit="10"/>
<path d="M129.239 133.116L116.477 198.813C115.809 202.111 117.576 205.41 120.639 206.745C121.582 207.137 122.524 207.334 123.467 207.334C126.608 207.334 129.553 205.252 130.417 202.033L144.986 151.415" stroke="#231F20" stroke-width="4.125" stroke-miterlimit="10"/>
<path d="M138.153 118.666L144.122 123.221L149.934 127.698C152.015 129.269 152.997 131.82 152.683 134.295C152.565 135.158 152.29 136.061 151.819 136.887L150.405 139.399C149.227 141.481 146.635 142.266 144.515 141.128L129.239 133.077L124.174 130.407C119.147 127.737 117.263 121.492 119.933 116.505L130.143 97.3428L140.234 85.5615L140.234 67.0659L187.357 67.0659L187.357 97.3428L200.198 137.437L200.198 146.546C200.198 149.924 198.077 152.946 194.896 154.087L166.309 164.334L158.926 136.258C158.73 135.55 158.651 134.845 158.651 134.176C158.651 130.29 161.4 126.793 165.406 126.088L176.479 124.084C180.367 123.377 184.176 125.616 185.433 129.308L189.163 139.949" stroke="#231F20" stroke-width="4.125" stroke-miterlimit="10"/>
<path d="M144.122 123.221L161.086 103.429" stroke="#231F20" stroke-width="4.125" stroke-miterlimit="10"/>
<rect x="204.875" y="67.375" width="77.4583" height="33" rx="7.33333" transform="rotate(-180 204.875 67.375)" fill="black" stroke="#231F20" stroke-width="3.66667"/>
<rect x="195.708" y="65.5417" width="66.4583" height="29.3333" rx="4.58333" transform="rotate(-180 195.708 65.5417)" fill="#66CC99"/>
<path d="M205.361 361.255C208.423 362.59 210.191 365.889 209.523 369.187L196.761 434.884V434.923L181.485 426.872C179.365 425.734 176.773 426.519 175.595 428.601L174.181 431.113C173.71 431.939 173.435 432.842 173.317 433.705L167.349 433.824C167.349 433.155 167.27 432.45 167.074 431.742L159.691 403.666L150.227 357.407C150.11 356.897 150.07 356.386 150.07 355.876C150.07 352.576 152.191 349.592 155.411 348.571C159.652 347.236 164.128 349.789 165.149 354.108L181.014 416.585L195.583 365.967C196.447 362.748 199.392 360.666 202.533 360.666C203.476 360.666 204.418 360.863 205.361 361.255Z" fill="#FFCC99"/>
<path d="M137.583 430.563V421.454C137.583 418.076 139.703 415.054 142.884 413.913L160.706 407.524L159.691 403.666L131.104 413.913C127.923 415.054 125.802 418.076 125.802 421.454V430.563L138.643 470.657V500.934H150.424V470.657L137.583 430.563" fill="black"/>
<path d="M195.857 470.657L206.067 451.495C208.737 446.508 206.853 440.263 201.826 437.593L196.761 434.923L181.485 426.872C179.365 425.734 176.773 426.519 175.595 428.601L174.181 431.113C173.71 431.939 173.435 432.842 173.317 433.705L167.349 433.824C167.349 433.155 167.27 432.45 167.074 431.742L160.706 407.524L142.884 413.913C139.703 415.054 137.583 418.076 137.583 421.454V430.563L150.424 470.657V500.934H185.766V482.439L195.857 470.657Z" fill="#FFCC99"/>
<path d="M136.955 527.715V507.845C136.955 504.035 140.057 500.934 143.866 500.934H138.643H132.085C128.276 500.934 125.174 504.035 125.174 507.845V527.715C125.174 531.523 128.276 534.587 132.085 534.587H143.866C140.057 534.587 136.955 531.523 136.955 527.715Z" fill="black"/>
<path d="M181.014 416.585L165.149 354.108C164.128 349.789 159.652 347.236 155.411 348.571C152.191 349.592 150.07 352.576 150.07 355.875C150.07 356.386 150.11 356.897 150.227 357.407L159.691 403.666" stroke="#231F20" stroke-width="4.125" stroke-miterlimit="10"/>
<path d="M196.761 434.884L209.523 369.187C210.191 365.889 208.424 362.59 205.361 361.255C204.418 360.863 203.476 360.666 202.533 360.666C199.392 360.666 196.447 362.748 195.583 365.967L181.014 416.585" stroke="#231F20" stroke-width="4.125" stroke-miterlimit="10"/>
<path d="M187.847 449.334L181.878 444.779L176.066 440.302C173.985 438.731 173.003 436.18 173.317 433.705C173.435 432.842 173.71 431.939 174.181 431.113L175.595 428.601C176.773 426.519 179.365 425.734 181.485 426.872L196.761 434.923L201.826 437.593C206.853 440.263 208.737 446.508 206.067 451.495L195.857 470.657L185.766 482.439V500.934H138.643V470.657L125.802 430.563V421.454C125.802 418.076 127.923 415.054 131.104 413.913L159.691 403.666L167.074 431.742C167.27 432.45 167.349 433.155 167.349 433.824C167.349 437.71 164.6 441.207 160.594 441.912L149.521 443.916C145.633 444.623 141.824 442.384 140.567 438.692L136.837 428.051" stroke="#231F20" stroke-width="4.125" stroke-miterlimit="10"/>
<path d="M181.878 444.779L164.914 464.571" stroke="#231F20" stroke-width="4.125" stroke-miterlimit="10"/>
<rect x="121.125" y="500.625" width="77.4583" height="33" rx="7.33333" fill="black" stroke="#231F20" stroke-width="3.66667"/>
<rect x="130.292" y="502.458" width="66.4583" height="29.3333" rx="4.58333" fill="#66CC99"/>
<rect x="69" y="274" width="184" height="46" rx="10" fill="#37209D"/>
<path d="M114.392 298.288V303.5H113.311V290.703H117.67C119 290.703 120.049 291.043 120.816 291.723C121.59 292.402 121.977 293.337 121.977 294.526C121.977 295.728 121.604 296.656 120.86 297.312C120.122 297.963 119.05 298.288 117.644 298.288H114.392ZM114.392 297.374H117.67C118.719 297.374 119.519 297.125 120.069 296.627C120.62 296.129 120.896 295.435 120.896 294.544C120.896 293.659 120.62 292.956 120.069 292.435C119.524 291.907 118.748 291.638 117.74 291.626H114.392V297.374ZM125.492 302.586H131.812V303.5H124.402V290.703H125.492V302.586ZM140.979 299.914H135.169L133.851 303.5H132.717L137.56 290.703H138.588L143.431 303.5H142.306L140.979 299.914ZM135.503 298.991H140.636L138.069 292.021L135.503 298.991ZM148.247 297.682L152.158 290.703H153.406L148.783 298.684V303.5H147.702V298.684L143.088 290.703H144.371L148.247 297.682ZM166.555 299.914H160.745L159.427 303.5H158.293L163.136 290.703H164.164L169.007 303.5H167.882L166.555 299.914ZM161.079 298.991H166.212L163.646 292.021L161.079 298.991ZM180.028 301.979C179.653 302.513 179.064 302.929 178.262 303.228C177.465 303.526 176.571 303.676 175.581 303.676C174.579 303.676 173.688 303.436 172.909 302.955C172.13 302.475 171.526 301.795 171.099 300.916C170.671 300.037 170.454 299.029 170.448 297.893V296.275C170.448 294.5 170.896 293.1 171.793 292.074C172.689 291.043 173.894 290.527 175.405 290.527C176.724 290.527 177.784 290.864 178.587 291.538C179.39 292.206 179.867 293.129 180.02 294.307H178.938C178.78 293.369 178.396 292.66 177.787 292.18C177.184 291.693 176.393 291.45 175.414 291.45C174.219 291.45 173.272 291.875 172.575 292.725C171.878 293.574 171.529 294.772 171.529 296.319V297.831C171.529 298.804 171.693 299.665 172.021 300.415C172.355 301.159 172.83 301.736 173.445 302.146C174.066 302.557 174.778 302.762 175.581 302.762C176.513 302.762 177.312 302.615 177.98 302.322C178.414 302.129 178.736 301.903 178.947 301.646V298.341H175.511V297.427H180.028V301.979ZM190.004 299.914H184.194L182.876 303.5H181.742L186.585 290.703H187.613L192.456 303.5H191.331L190.004 299.914ZM184.528 298.991H189.661L187.095 292.021L184.528 298.991ZM195.664 303.5H194.583V290.703H195.664V303.5ZM208.672 303.5H207.591L200.234 292.549V303.5H199.145V290.703H200.234L207.6 301.663V290.703H208.672V303.5Z" fill="#E3E1E1"/>
<path d="M23.8203 25.25L27.3359 21.7344C27.793 21.3125 27.793 20.6094 27.3359 20.1875L26.5625 19.4141C26.1406 18.957 25.4375 18.957 25.0156 19.4141L21.5 22.9297L17.9492 19.4141C17.5273 18.957 16.8242 18.957 16.4023 19.4141L15.6289 20.1875C15.1719 20.6094 15.1719 21.3125 15.6289 21.7344L19.1445 25.25L15.6289 28.8008C15.1719 29.2227 15.1719 29.9258 15.6289 30.3477L16.4023 31.1211C16.8242 31.5781 17.5273 31.5781 17.9492 31.1211L21.5 27.6055L25.0156 31.1211C25.4375 31.5781 26.1406 31.5781 26.5625 31.1211L27.3359 30.3477C27.793 29.9258 27.793 29.2227 27.3359 28.8008L23.8203 25.25Z" fill="white"/>
</g>
<defs>
<clipPath id="clip0_1_407">
<rect width="320" height="568" fill="white"/>
</clipPath>
</defs>
</svg>
