<svg width="320" height="568" viewBox="0 0 320 568" fill="none" xmlns="http://www.w3.org/2000/svg">
<g clip-path="url(#clip0_1_423)">
<rect width="320" height="568" fill="black"/>
<path d="M101.037 253.941L104.309 246.227H108.935L103.21 257.616V264H98.8643V257.616L93.1514 246.227H97.7534L101.037 253.941ZM124.914 255.479C124.914 257.213 124.593 258.747 123.95 260.082C123.307 261.416 122.391 262.446 121.203 263.17C120.023 263.886 118.676 264.244 117.163 264.244C115.649 264.244 114.306 263.898 113.134 263.207C111.962 262.507 111.047 261.51 110.388 260.216C109.737 258.922 109.395 257.437 109.362 255.76V254.759C109.362 253.018 109.68 251.484 110.314 250.157C110.957 248.823 111.873 247.793 113.061 247.069C114.257 246.345 115.616 245.982 117.138 245.982C118.644 245.982 119.986 246.34 121.167 247.057C122.347 247.773 123.262 248.794 123.913 250.121C124.572 251.439 124.906 252.953 124.914 254.662V255.479ZM120.556 254.735C120.556 252.969 120.259 251.63 119.665 250.719C119.079 249.799 118.237 249.339 117.138 249.339C114.99 249.339 113.854 250.951 113.732 254.173L113.72 255.479C113.72 257.221 114.009 258.56 114.587 259.496C115.165 260.431 116.023 260.899 117.163 260.899C118.245 260.899 119.079 260.44 119.665 259.52C120.251 258.6 120.548 257.278 120.556 255.553V254.735ZM141.064 246.227V257.86C141.064 259.178 140.783 260.322 140.222 261.29C139.66 262.25 138.854 262.983 137.805 263.487C136.755 263.992 135.514 264.244 134.082 264.244C131.917 264.244 130.212 263.683 128.967 262.56C127.722 261.437 127.087 259.898 127.062 257.945V246.227H131.372V258.031C131.42 259.976 132.324 260.948 134.082 260.948C134.969 260.948 135.64 260.704 136.096 260.216C136.551 259.728 136.779 258.934 136.779 257.835V246.227H141.064ZM163.745 257.372L165.783 246.227H170.031L166.259 264H161.816L159.436 253.868L157.104 264H152.673L148.889 246.227H153.149L155.188 257.372L157.629 246.227H161.267L163.745 257.372ZM176.269 264H171.997V246.227H176.269V264ZM194.091 264H189.831L183.532 252.94V264H179.248V246.227H183.532L189.819 257.286V246.227H194.091V264ZM200.695 258.373H197.363L196.838 246.227H201.22L200.695 258.373ZM196.716 262.157C196.716 261.555 196.931 261.062 197.363 260.68C197.802 260.289 198.347 260.094 198.999 260.094C199.65 260.094 200.191 260.289 200.622 260.68C201.062 261.062 201.281 261.555 201.281 262.157C201.281 262.759 201.062 263.255 200.622 263.646C200.191 264.028 199.65 264.22 198.999 264.22C198.347 264.22 197.802 264.028 197.363 263.646C196.931 263.255 196.716 262.759 196.716 262.157ZM220.703 242.516C214.013 242.516 208.593 247.936 208.593 254.625C208.593 261.314 214.013 266.734 220.703 266.734C227.392 266.734 232.812 261.314 232.812 254.625C232.812 247.936 227.392 242.516 220.703 242.516ZM227.587 261.559C225.732 263.414 223.291 264.391 220.703 264.391C218.066 264.391 215.625 263.414 213.769 261.559C211.914 259.703 210.937 257.262 210.937 254.625C210.937 252.037 211.914 249.596 213.769 247.74C215.625 245.885 218.066 244.859 220.703 244.859C223.291 244.859 225.732 245.885 227.587 247.74C229.443 249.596 230.468 252.037 230.468 254.625C230.468 257.262 229.443 259.703 227.587 261.559ZM224.609 249.547C223.437 249.547 222.021 251.012 221.875 253.062C221.826 253.453 222.363 253.648 222.558 253.258L223.046 252.428C223.437 251.793 223.974 251.402 224.56 251.402C225.195 251.402 225.732 251.793 226.123 252.428L226.562 253.258C226.806 253.648 227.343 253.453 227.294 253.062C227.148 251.012 225.732 249.547 224.609 249.547ZM214.794 253.258L215.234 252.428C215.625 251.793 216.162 251.402 216.796 251.402C217.382 251.402 217.919 251.793 218.31 252.428L218.798 253.258C218.994 253.648 219.531 253.453 219.482 253.062C219.335 251.012 217.919 249.547 216.748 249.547C215.625 249.547 214.208 251.012 214.013 253.062C214.013 253.453 214.55 253.648 214.794 253.258ZM226.269 256.188H215.087C214.697 256.188 214.404 256.529 214.453 256.92C214.794 259.85 217.333 262.047 220.361 262.047H220.996C224.072 262.047 226.562 259.85 226.904 256.92C226.953 256.529 226.66 256.188 226.269 256.188Z" fill="white"/>
<path d="M193.501 41.2084L193.501 61C193.501 63.0388 192.614 64.851 191.229 66.1192L196.54 66.1192C200.349 66.1192 203.451 63.0184 203.451 59.1692L203.451 39.3776C203.451 35.5304 200.349 32.4276 196.54 32.4276L136.341 32.4276C134.551 32.4276 132.931 33.1314 131.702 34.2566L186.589 34.2566C190.399 34.2566 193.501 37.3593 193.501 41.2084Z" fill="black"/>
<path d="M123.524 199.578C123.323 200.373 122.99 201.093 122.568 201.738C122.961 202.018 123.321 202.338 123.775 202.538C124.718 202.932 125.66 203.129 126.603 203.129C129.744 203.129 132.65 201.008 133.475 197.748L136.703 184.648L136.443 147.154L123.524 199.578Z" fill="#FFCC99"/>
<path d="M111.508 152.102C111.336 152.386 111.107 152.598 110.91 152.85C112.124 153.593 113.482 154.003 114.862 154.003C116.01 154.003 117.145 153.712 118.197 153.207L121.717 135.255L111.508 152.102Z" fill="#FFCC99"/>
<path d="M178.854 201.069C178.854 201.266 178.893 201.463 178.893 201.619C178.893 203.082 178.39 204.423 177.606 205.567C179.239 206.714 181.331 207.195 183.424 206.662C186.605 205.877 188.844 203.049 188.844 199.79C188.844 199.632 188.804 199.437 188.804 199.24L186.904 173.019L174.612 142.56L178.854 201.069Z" fill="#FFCC99"/>
<path d="M152.229 215.443C152.15 217.093 151.539 218.588 150.588 219.801C151.741 220.495 153.079 220.917 154.523 220.917C158.646 220.917 161.984 217.697 162.18 213.612L163.098 193.347L155.293 147.783L152.229 215.443Z" fill="#FFCC99"/>
<path d="M180.071 98.2251L201.982 173.464C202.179 174.131 202.257 174.76 202.257 175.427C202.257 176.74 201.872 178.013 201.182 179.109C203.202 180.604 205.95 180.975 208.399 179.763C210.795 178.585 212.208 176.151 212.208 173.598C212.208 172.93 212.13 172.302 211.933 171.634L190.021 96.3961L190.021 66.1192L142.899 66.1192L142.899 67.95L180.071 67.95L180.071 98.2251Z" fill="black"/>
<path d="M132.768 96.3962L108.107 142.694C106.733 145.247 106.929 148.386 108.618 150.743C109.252 151.654 110.05 152.325 110.909 152.85C111.107 152.598 111.336 152.386 111.508 152.102L121.717 135.255L118.197 153.207C119.483 152.588 120.638 151.634 121.459 150.273L131.668 133.426L119.652 194.686C119.119 197.454 120.35 200.148 122.568 201.738C122.99 201.093 123.323 200.373 123.524 199.578L136.443 147.154L136.703 184.648L146.394 145.325L146.865 213.337C146.891 216.095 148.385 218.475 150.588 219.801C151.539 218.588 152.15 217.094 152.229 215.443L155.292 147.783L163.098 193.347L165.243 145.952L174.667 200.967C175.005 202.917 176.115 204.517 177.606 205.567C178.39 204.423 178.893 203.082 178.893 201.619C178.893 201.463 178.854 201.266 178.854 201.069L174.612 142.56L186.904 173.019L184.563 140.731L198.857 176.151C199.361 177.391 200.191 178.376 201.182 179.109C201.872 178.014 202.257 176.74 202.257 175.427C202.257 174.76 202.179 174.131 201.982 173.464L180.071 98.2251L180.071 67.95L142.899 67.95L142.899 84.6148L132.768 96.3962Z" fill="#FFCC99"/>
<path d="M165.243 145.952L174.667 200.967C175.374 205.052 179.419 207.683 183.424 206.662C186.605 205.877 188.844 203.049 188.844 199.79C188.844 199.632 188.804 199.437 188.804 199.24L184.563 140.731" stroke="#231F20" stroke-width="4.125" stroke-miterlimit="10"/>
<path d="M146.394 145.325L146.865 213.337C146.905 217.539 150.321 220.917 154.523 220.917C158.646 220.917 161.984 217.697 162.18 213.612L165.243 145.952" stroke="#231F20" stroke-width="4.125" stroke-miterlimit="10"/>
<path d="M131.668 133.426L119.652 194.686C119.024 197.944 120.752 201.203 123.775 202.538C124.718 202.932 125.66 203.129 126.603 203.129C129.744 203.129 132.65 201.008 133.475 197.748L146.394 145.325" stroke="#231F20" stroke-width="4.125" stroke-miterlimit="10"/>
<path d="M184.563 140.731L198.857 176.151C200.388 179.92 204.747 181.569 208.399 179.763C210.795 178.585 212.208 176.151 212.208 173.598C212.208 172.93 212.13 172.302 211.933 171.634L190.021 96.3961L190.021 66.1192L142.899 66.1192L142.899 84.6147L132.768 96.3961L108.107 142.693C106.733 145.247 106.929 148.386 108.618 150.743C110.149 152.943 112.505 154.003 114.862 154.003C117.414 154.003 119.966 152.746 121.459 150.273L131.668 133.426L150.242 131.384L160.727 111.2" stroke="#231F20" stroke-width="4.125" stroke-miterlimit="10"/>
<rect x="205.792" y="67.375" width="77.4583" height="33" rx="7.33333" transform="rotate(-180 205.792 67.375)" fill="black" stroke="#231F20" stroke-width="3.66667"/>
<rect x="196.625" y="65.5417" width="66.4583" height="29.3333" rx="4.58333" transform="rotate(-180 196.625 65.5417)" fill="#66CC99"/>
<path d="M205.36 361.255C208.423 362.59 210.191 365.889 209.523 369.187L196.761 434.884V434.923L181.485 426.872C179.365 425.734 176.773 426.519 175.595 428.601L174.181 431.113C173.71 431.939 173.435 432.842 173.317 433.705L167.349 433.824C167.349 433.155 167.27 432.45 167.074 431.742L159.691 403.666L150.227 357.407C150.11 356.897 150.07 356.386 150.07 355.876C150.07 352.576 152.191 349.592 155.411 348.571C159.652 347.236 164.128 349.789 165.149 354.108L181.014 416.585L195.583 365.967C196.447 362.748 199.392 360.666 202.533 360.666C203.476 360.666 204.418 360.863 205.36 361.255Z" fill="#FFCC99"/>
<path d="M137.583 430.563V421.454C137.583 418.076 139.703 415.054 142.884 413.913L160.706 407.524L159.691 403.666L131.104 413.913C127.923 415.054 125.802 418.076 125.802 421.454V430.563L138.643 470.657V500.934H150.424V470.657L137.583 430.563" fill="black"/>
<path d="M195.857 470.657L206.067 451.495C208.737 446.508 206.853 440.263 201.826 437.593L196.761 434.923L181.485 426.872C179.365 425.734 176.773 426.519 175.595 428.601L174.181 431.113C173.71 431.939 173.435 432.842 173.317 433.705L167.348 433.824C167.348 433.155 167.27 432.45 167.074 431.742L160.706 407.524L142.884 413.913C139.703 415.054 137.583 418.076 137.583 421.454V430.563L150.424 470.657V500.934H185.766V482.439L195.857 470.657Z" fill="#FFCC99"/>
<path d="M136.955 527.715V507.845C136.955 504.035 140.057 500.934 143.866 500.934H138.643H132.085C128.276 500.934 125.174 504.035 125.174 507.845V527.715C125.174 531.523 128.276 534.587 132.085 534.587H143.866C140.057 534.587 136.955 531.523 136.955 527.715Z" fill="black"/>
<path d="M181.014 416.585L165.149 354.108C164.128 349.789 159.652 347.236 155.411 348.571C152.191 349.592 150.07 352.576 150.07 355.875C150.07 356.386 150.11 356.897 150.227 357.407L159.691 403.666" stroke="#231F20" stroke-width="4.125" stroke-miterlimit="10"/>
<path d="M196.761 434.884L209.523 369.187C210.191 365.889 208.424 362.59 205.361 361.255C204.418 360.863 203.476 360.666 202.533 360.666C199.392 360.666 196.447 362.748 195.583 365.967L181.014 416.585" stroke="#231F20" stroke-width="4.125" stroke-miterlimit="10"/>
<path d="M187.847 449.334L181.878 444.779L176.066 440.302C173.985 438.731 173.003 436.18 173.317 433.705C173.435 432.842 173.71 431.939 174.181 431.113L175.595 428.601C176.773 426.519 179.365 425.734 181.485 426.872L196.761 434.923L201.826 437.593C206.853 440.263 208.737 446.508 206.067 451.495L195.857 470.657L185.766 482.439V500.934H138.643V470.657L125.802 430.563V421.454C125.802 418.076 127.923 415.054 131.104 413.913L159.691 403.666L167.074 431.742C167.27 432.45 167.349 433.155 167.349 433.824C167.349 437.71 164.6 441.207 160.594 441.912L149.521 443.916C145.633 444.623 141.824 442.384 140.567 438.692L136.837 428.051" stroke="#231F20" stroke-width="4.125" stroke-miterlimit="10"/>
<path d="M181.878 444.779L164.914 464.571" stroke="#231F20" stroke-width="4.125" stroke-miterlimit="10"/>
<rect x="121.125" y="500.625" width="77.4583" height="33" rx="7.33333" fill="black" stroke="#231F20" stroke-width="3.66667"/>
<rect x="130.292" y="502.458" width="66.4583" height="29.3333" rx="4.58333" fill="#66CC99"/>
<rect x="69" y="274" width="184" height="46" rx="10" fill="#37209D"/>
<path d="M114.392 298.288V303.5H113.311V290.703H117.67C119 290.703 120.049 291.043 120.816 291.723C121.59 292.402 121.977 293.337 121.977 294.526C121.977 295.728 121.604 296.656 120.86 297.312C120.122 297.963 119.05 298.288 117.644 298.288H114.392ZM114.392 297.374H117.67C118.719 297.374 119.519 297.125 120.069 296.627C120.62 296.129 120.896 295.435 120.896 294.544C120.896 293.659 120.62 292.956 120.069 292.435C119.524 291.907 118.748 291.638 117.74 291.626H114.392V297.374ZM125.492 302.586H131.812V303.5H124.402V290.703H125.492V302.586ZM140.979 299.914H135.169L133.851 303.5H132.717L137.56 290.703H138.588L143.431 303.5H142.306L140.979 299.914ZM135.503 298.991H140.636L138.069 292.021L135.503 298.991ZM148.247 297.682L152.158 290.703H153.406L148.783 298.684V303.5H147.702V298.684L143.088 290.703H144.371L148.247 297.682ZM166.555 299.914H160.745L159.427 303.5H158.293L163.136 290.703H164.164L169.007 303.5H167.882L166.555 299.914ZM161.079 298.991H166.212L163.646 292.021L161.079 298.991ZM180.028 301.979C179.653 302.513 179.064 302.929 178.262 303.228C177.465 303.526 176.571 303.676 175.581 303.676C174.579 303.676 173.688 303.436 172.909 302.955C172.13 302.475 171.526 301.795 171.099 300.916C170.671 300.037 170.454 299.029 170.448 297.893V296.275C170.448 294.5 170.896 293.1 171.793 292.074C172.689 291.043 173.894 290.527 175.405 290.527C176.724 290.527 177.784 290.864 178.587 291.538C179.39 292.206 179.867 293.129 180.02 294.307H178.938C178.78 293.369 178.396 292.66 177.787 292.18C177.184 291.693 176.393 291.45 175.414 291.45C174.219 291.45 173.272 291.875 172.575 292.725C171.878 293.574 171.529 294.772 171.529 296.319V297.831C171.529 298.804 171.693 299.665 172.021 300.415C172.355 301.159 172.83 301.736 173.445 302.146C174.066 302.557 174.778 302.762 175.581 302.762C176.513 302.762 177.312 302.615 177.98 302.322C178.414 302.129 178.736 301.903 178.947 301.646V298.341H175.511V297.427H180.028V301.979ZM190.004 299.914H184.194L182.876 303.5H181.742L186.585 290.703H187.613L192.456 303.5H191.331L190.004 299.914ZM184.528 298.991H189.661L187.095 292.021L184.528 298.991ZM195.664 303.5H194.583V290.703H195.664V303.5ZM208.672 303.5H207.591L200.234 292.549V303.5H199.145V290.703H200.234L207.6 301.663V290.703H208.672V303.5Z" fill="#E3E1E1"/>
<path d="M23.8203 25.25L27.3359 21.7344C27.793 21.3125 27.793 20.6094 27.3359 20.1875L26.5625 19.4141C26.1406 18.957 25.4375 18.957 25.0156 19.4141L21.5 22.9297L17.9492 19.4141C17.5273 18.957 16.8242 18.957 16.4023 19.4141L15.6289 20.1875C15.1719 20.6094 15.1719 21.3125 15.6289 21.7344L19.1445 25.25L15.6289 28.8008C15.1719 29.2227 15.1719 29.9258 15.6289 30.3477L16.4023 31.1211C16.8242 31.5781 17.5273 31.5781 17.9492 31.1211L21.5 27.6055L25.0156 31.1211C25.4375 31.5781 26.1406 31.5781 26.5625 31.1211L27.3359 30.3477C27.793 29.9258 27.793 29.2227 27.3359 28.8008L23.8203 25.25Z" fill="white"/>
</g>
<defs>
<clipPath id="clip0_1_423">
<rect width="320" height="568" fill="white"/>
</clipPath>
</defs>
</svg>
